<?xml version="1.0" encoding="UTF-8"?>
<svg width="1200px" height="1200px" viewBox="0 0 1200 1200" version="1.1" xmlns="http://www.w3.org/2000/svg" xmlns:xlink="http://www.w3.org/1999/xlink">
    <!-- Generator: Sketch 53.2 (72643) - https://sketchapp.com -->
    <title>calva-symbol</title>
    <desc>Created with Sketch.</desc>
    <g id="Calva-2" stroke="none" stroke-width="1" fill="none" fill-rule="evenodd">
        <g id="Calva-2-BG" transform="translate(20.000000, 58.000000)">
            <g id="Calva-BG">
                <path d="M170.476298,1082.61861 C60.0268654,956.593158 0,703.342021 0,535.308091 C0,369.674646 50.4225669,146.429567 170.476298,0 L218.714447,2.40048471 C131.075223,193.239019 101.06179,328.866406 101.06179,535.308091 C101.06179,721.345656 139.478984,908.583463 218.714447,1080.21812 L170.476298,1082.61861 Z" id="(-)" fill="#5881D8"></path>
                <path d="M1109.4763,1083.61861 C999.026865,957.593158 939,704.342021 939,536.308091 C939,370.674646 989.422567,147.429567 1109.4763,1 L1157.71445,3.40048471 C1070.07522,194.239019 1040.06179,329.866406 1040.06179,536.308091 C1040.06179,722.345656 1078.47898,909.583463 1157.71445,1081.21812 L1109.4763,1083.61861 Z" id="(-)-copy" fill="#5881D8" transform="translate(1048.357223, 542.309303) scale(-1, 1) translate(-1048.357223, -542.309303) "></path>
                <path d="M1008.43361,322 C1020.47575,387.985544 1029.55238,457.683177 1029.55238,535.789377 C1029.55238,707.099091 981.337343,879.253027 924.625733,1043.22321 L234.926649,1043.22321 L225.341966,1043.22321 C169.262577,881.257705 134.53489,711.307331 134.009742,542.07297 C134.003242,539.978323 136,537.883787 136,535.789377 C136,457.683177 143.07663,387.985544 155.11877,322 L1008.43361,322 Z" id="Calva--Rectangle" fill="#91DC47"></path>
            </g>
        </g>
    </g>
</svg>