<?xml version="1.0" encoding="UTF-8"?>
<svg width="4609px" height="1191px" viewBox="0 0 4609 1191" version="1.1" xmlns="http://www.w3.org/2000/svg" xmlns:xlink="http://www.w3.org/1999/xlink">
    <!-- Generator: Sketch 53.2 (72643) - https://sketchapp.com -->
    <title>calva-symbol-logo</title>
    <desc>Created with Sketch.</desc>
    <g id="Calva-logo" stroke="none" stroke-width="1" fill="none" fill-rule="evenodd">
        <g id="calva-symbol-logo" transform="translate(-2.000000, -1.000000)">
            <g transform="translate(2.000000, 0.000000)">
                <g id="Calva-icon" transform="translate(0.181351, 0.935064)" fill-rule="nonzero">
                    <path d="M174.918979,11.503104 C190.080334,-3.76259289 214.743685,-3.84454847 230.006115,11.320051 C245.268546,26.4846506 245.350484,51.1532798 230.189129,66.4189767 C229.59849,67.0136802 227.871467,68.8865577 225.165565,72.0608735 C220.272378,77.801111 214.713599,84.8907849 208.645799,93.3538051 C190.888938,118.12006 172.969249,148.673694 156.130387,185.221844 C107.344771,291.109288 77.9054054,423.516631 77.9054054,584.415586 C77.9054054,745.31454 107.344771,877.721884 156.130387,983.609328 C172.969249,1020.15748 190.888938,1050.71111 208.645799,1075.47737 C214.713599,1083.94039 220.272378,1091.03006 225.165565,1096.7703 C227.871467,1099.94461 229.59849,1101.81749 230.189129,1102.41219 C245.350484,1117.67789 245.268546,1142.34652 230.006115,1157.51112 C214.743685,1172.67572 190.080334,1172.59376 174.918979,1157.32807 C168.376096,1150.74016 158.082074,1138.66415 145.336887,1120.8879 C124.749681,1092.17404 104.325303,1057.34983 85.3763694,1016.22184 C31.9111414,900.17747 -8.52651283e-14,756.652995 -8.52651283e-14,584.415586 C-8.52651283e-14,412.178177 31.9111414,268.653702 85.3763694,152.609328 C104.325303,111.481341 124.749681,76.6571344 145.336887,47.9432755 C158.082074,30.1670173 168.376096,18.0910155 174.918979,11.503104 Z" id="Path" fill="#90B4FE"></path>
                    <path d="M1291.92668,66.4189767 C1276.76533,51.1532798 1276.84726,26.4846506 1292.1097,11.320051 C1307.37213,-3.84454847 1332.03548,-3.76259289 1347.19683,11.503104 C1353.73971,18.0910155 1364.03374,30.1670173 1376.77892,47.9432755 C1397.36613,76.6571344 1417.79051,111.481341 1436.73944,152.609328 C1490.20467,268.653702 1522.11581,412.178177 1522.11581,584.415586 C1522.11581,756.652995 1490.20467,900.17747 1436.73944,1016.22184 C1417.79051,1057.34983 1397.36613,1092.17404 1376.77892,1120.8879 C1364.03374,1138.66415 1353.73971,1150.74016 1347.19683,1157.32807 C1332.03548,1172.59376 1307.37213,1172.67572 1292.1097,1157.51112 C1276.84726,1142.34652 1276.76533,1117.67789 1291.92668,1102.41219 C1292.51732,1101.81749 1294.24434,1099.94461 1296.95025,1096.7703 C1301.84343,1091.03006 1307.40221,1083.94039 1313.47001,1075.47737 C1331.22687,1050.71111 1349.14656,1020.15748 1365.98542,983.609328 C1414.77104,877.721884 1444.21041,745.31454 1444.21041,584.415586 C1444.21041,423.516631 1414.77104,291.109288 1365.98542,185.221844 C1349.14656,148.673694 1331.22687,118.12006 1313.47001,93.3538051 C1307.40221,84.8907849 1301.84343,77.801111 1296.95025,72.0608735 C1294.24434,68.8865577 1292.51732,67.0136802 1291.92668,66.4189767 Z" id="Path" fill="#90B4FE"></path>
                    <path d="M1208.31284,271.636365 C1169.82757,264.467534 1137.41892,399.272729 1009.65405,279.272729 C868.022027,146.337664 763.940405,279.272729 763.940405,279.272729 C763.940405,279.272729 662.819189,412.363638 521.187162,279.272729 C427.700676,191.532469 335.304865,236.57143 335.304865,236.57143 C283.916717,345.285481 258.119007,464.332208 259.892432,584.57143 C258.885759,684.296888 276.263252,783.353946 311.154189,876.779222 C344.556589,965.14561 416.99614,1033.05424 507.32,1060.67533 C591.164763,1083.82147 677.911237,1094.73927 764.87527,1093.09091 C846.949968,1094.45827 928.842894,1084.9204 1008.40757,1064.72727 C1106.27809,1037.45019 1184.92711,964.531884 1219.53122,868.987014 C1252.38559,777.801827 1268.74141,681.492966 1267.83257,584.57143 C1269.08315,477.330999 1248.84517,370.926353 1208.31284,271.636365 Z" id="Path" fill="#DB9550"></path>
                </g>
                <path d="M2565.23837,964.85678 C2419.82909,1113.7053 2323.01075,1180.72787 2195.2568,1191.04093 C2034.50841,1204.03348 1873.19746,1088.57342 1815.35895,928.028655 C1762.68075,781.807575 1788.85817,607.62206 1877.32597,461.060527 C1952.577,336.394768 2067.95392,231.356232 2220.98897,136.729222 C2303.11642,86.0421989 2395.69456,62.0076755 2468.83746,74.7218412 C2554.49253,89.6109504 2605.96135,152.320134 2605.96135,253.714286 C2605.96135,266.624838 2595.49752,277.090909 2582.58973,277.090909 C2569.68194,277.090909 2559.21811,266.624838 2559.21811,253.714286 C2559.21811,174.819739 2523.8605,131.740328 2460.83396,120.784652 C2400.13571,110.233696 2318.66169,131.385442 2245.55152,176.507214 C2098.32791,267.540815 1988.24805,367.756939 1917.34159,485.225187 C1835.7584,620.381226 1811.75388,780.108188 1859.33429,912.179137 C1910.31631,1053.69205 2052.76626,1155.65214 2191.49415,1144.4394 C2304.36488,1135.32781 2393.90715,1073.3421 2531.80538,932.18229 C2537.03852,926.825376 2542.47402,921.234473 2549.01837,914.482383 C2552.76775,910.613987 2565.61025,897.346663 2566.1142,896.826304 C2719.8018,738.133134 2848.36083,661.069407 2992.48341,679.19563 C3005.43648,680.824731 3012.13293,690.385085 3012.87214,700.424136 C3013.41414,703.935753 3013.12155,707.811365 3011.74324,711.953551 C2996.86266,756.673489 2979.81783,800.594661 2960.68511,843.560406 C2953.42185,869.719495 2949.88468,892.853273 2948.8825,918.07132 C2945.9971,990.677604 2977.641,1058.88757 3030.70513,1085.73878 C3088.84385,1115.87734 3170.73784,1095.35915 3227.61701,1040.42958 C3262.19152,1007.04015 3285.56917,971.200678 3314.1142,908.9665 C3284.249,778.766444 3282.74215,596.787846 3306.88979,425.043232 C3334.51208,228.58593 3386.05726,96.3116883 3455.90932,96.3116883 C3530.70277,96.3116883 3540.0115,210.469466 3510.25678,399.728761 C3486.26894,552.306922 3436.73017,736.260891 3387.78459,855.886712 C3379.07829,877.110119 3371.01552,896.210128 3363.32822,913.563911 C3365.19986,920.853985 3367.1722,927.936661 3369.24569,934.79756 C3382.31146,978.788929 3396.62749,1004.8074 3418.63396,1018.74803 C3465.82011,1048.38288 3541.6979,1002.56667 3565.79304,932.879064 C3576.05855,903.189285 3579.95885,877.620445 3585.39128,818.365631 C3585.49377,817.247661 3585.49377,817.247661 3585.59644,816.128446 C3590.82071,759.191638 3594.84101,731.969836 3605.01236,699.720412 C3612.33519,676.502551 3645.83651,678.549024 3650.28008,702.485651 C3672.58003,822.611099 3726.16736,934.491214 3805.34075,1026.96488 C3844.15571,927.320705 3872.17121,823.760903 3888.88282,718.062861 C3892.74257,693.650649 3926.9007,691.149064 3934.27436,714.738592 C3944.87841,748.662598 4123.58168,746.905312 4226.26983,716.331847 C4239.1693,710.331993 4252.63421,705.201797 4266.60616,701.029113 C4267.83187,700.663059 4269.03324,700.390847 4270.20774,700.205957 C4283.33406,686.724682 4310.99294,694.078516 4310.36748,717.507101 C4309.12028,764.224857 4305.25223,810.794297 4298.79694,856.991199 C4301.75582,912.076558 4315.31475,961.06746 4340.69026,1002.09014 C4390.6556,1082.86537 4501.70288,1119.19077 4572.11667,1073.89684 C4582.97314,1066.91338 4597.43407,1070.05495 4604.41604,1080.91375 C4611.39801,1091.77256 4608.25711,1106.23657 4597.40063,1113.22004 C4503.18972,1173.82154 4363.73389,1128.20324 4300.94001,1026.68908 C4291.14661,1010.85682 4282.88062,994.154786 4276.07554,976.656032 C4273.37659,987.856348 4270.5218,999.022076 4267.51169,1010.14984 C4248.11504,1082.61069 4208.93953,1133.85501 4150.81929,1129.49504 C4099.53404,1125.70934 4065.29454,1076.4623 4056.84975,1016.57704 C4047.2835,927.588502 4078.34886,842.26007 4136.54939,780.895138 C4114.2569,783.570091 4091.4493,785.358395 4069.1429,786.085015 C4008.57957,788.057836 3959.58509,782.840256 3927.71784,767.8857 C3907.75486,874.666827 3876.54571,979.076272 3834.58764,1079.36189 C3828.07756,1094.92189 3807.73672,1098.67444 3796.10514,1086.46127 C3722.5931,1009.27355 3666.92114,917.445911 3632.41305,817.485162 C3632.32378,818.447713 3632.23413,819.419689 3632.14406,820.401283 C3632.04167,821.517499 3632.04167,821.517499 3631.93923,822.634931 C3626.16235,885.646886 3621.88242,913.704433 3609.96913,948.159897 C3577.23428,1042.83514 3471.113,1106.91284 3393.70064,1058.29447 C3365.62451,1040.50912 3347.79647,1014.08873 3333.46739,975.451757 C3311.47833,1016.32499 3289.60342,1045.55692 3260.08461,1074.06393 C3189.90374,1141.83927 3087.05253,1167.60821 3009.40054,1127.35288 C2949.53135,1097.05963 2911.84844,1031.2956 2903.64819,957.781293 C2887.25143,987.278915 2869.81519,1016.21155 2851.36769,1044.52132 C2804.76521,1116.73778 2751.69989,1160.32565 2688.75346,1158.37844 C2617.40233,1156.17123 2561.08784,1084.41356 2561.08784,1008.46753 C2561.08784,993.302713 2562.99358,978.268848 2566.65989,963.400998 C2566.18406,963.888509 2565.71044,964.373547 2565.23837,964.85678 Z M2679.15976,865.139722 C2633.75247,912.070631 2607.83108,961.083197 2607.83108,1008.46753 C2607.83108,1061.03806 2646.48758,1110.29536 2690.19843,1111.64754 C2732.11153,1112.94409 2773.5369,1078.91728 2812.15126,1019.07985 C2851.83563,958.179482 2886.67157,894.336412 2916.37214,828.145598 C2924.47803,799.774358 2936.44091,768.459159 2953.40211,728.911782 C2849.5544,741.977104 2752.74754,789.81167 2679.15976,865.139722 Z M4103.22929,1010.80811 C4108.86734,1050.7281 4129.96658,1081.07537 4154.28742,1082.87067 C4182.27831,1084.97043 4208.15414,1051.12302 4222.37482,997.998599 C4235.09553,950.972556 4244.93383,903.258036 4251.85067,855.12153 C4250.45487,823.292857 4252.22416,789.925431 4256.91155,755.290606 C4253.13485,756.593021 4249.21637,757.865981 4245.1693,759.107216 C4150.1426,803.729331 4091.8055,904.432071 4103.22929,1010.80811 Z M3464.08096,392.466044 C3476.41564,314.009492 3481.1988,248.282403 3477.46665,202.513115 C3474.05286,160.64794 3464.82901,143.064935 3455.90932,143.064935 C3423.55539,143.064935 3376.90935,262.767106 3353.17754,431.55417 C3333.75047,569.724861 3331.48434,714.805416 3347.47758,830.880916 C3394.03536,714.607996 3441.12052,538.509267 3464.08096,392.466044 Z" id="Path" fill="#DB9550" fill-rule="nonzero"></path>
            </g>
        </g>
    </g>
</svg>