<svg width="937" height="720" viewBox="0 0 937 720" fill="none" xmlns="http://www.w3.org/2000/svg">
<path d="M115.971 17.1953C125.136 7.96692 140.045 7.91735 149.272 17.0846C158.498 26.2518 158.548 41.1645 149.382 50.3928C149.025 50.7523 147.981 51.8845 146.346 53.8034C143.388 57.2735 140.027 61.5593 136.359 66.6754C125.625 81.6469 114.792 100.117 104.613 122.211C75.121 186.222 57.3244 266.264 57.3244 363.53C57.3244 460.796 75.121 540.839 104.613 604.849C114.792 626.943 125.625 645.413 136.359 660.385C140.027 665.501 143.388 669.787 146.346 673.257C147.981 675.176 149.025 676.308 149.382 676.667C158.548 685.896 158.498 700.808 149.272 709.976C140.045 719.143 125.136 719.093 115.971 709.865C112.015 705.883 105.793 698.582 98.0879 687.836C85.6426 670.478 73.2957 649.426 61.8408 624.564C29.5202 554.413 10.2294 467.65 10.2294 363.53C10.2294 259.41 29.5202 172.647 61.8408 102.496C73.2957 77.6337 85.6426 56.5819 98.0879 39.2239C105.793 28.4779 112.015 21.1778 115.971 17.1953V17.1953Z" fill="#FFFAF4"/>
<path d="M791.22 50.3925C782.054 41.1642 782.104 26.2516 791.33 17.0844C800.557 7.91711 815.466 7.96668 824.631 17.195C828.587 21.1775 834.809 28.4777 842.514 39.2237C854.959 56.5817 867.306 77.6335 878.761 102.496C911.082 172.647 930.373 259.41 930.373 363.53C930.373 467.65 911.082 554.413 878.761 624.564C867.306 649.426 854.959 670.478 842.514 687.836C834.809 698.582 828.587 705.882 824.631 709.865C815.466 719.093 800.557 719.143 791.33 709.975C782.104 700.808 782.054 685.896 791.22 676.667C791.577 676.308 792.621 675.176 794.256 673.257C797.214 669.787 800.575 665.501 804.243 660.385C814.977 645.413 825.81 626.943 835.989 604.849C865.481 540.838 883.278 460.796 883.278 363.53C883.278 266.264 865.481 186.222 835.989 122.211C825.81 100.117 814.977 81.6467 804.243 66.6751C800.575 61.5591 797.214 57.2733 794.256 53.8031C792.621 51.8842 791.577 50.7521 791.22 50.3925V50.3925Z" fill="#FFFAF4"/>
<path d="M740.674 174.45C717.409 170.116 697.817 251.608 620.581 179.066C534.962 98.7046 472.043 179.066 472.043 179.066C472.043 179.066 410.914 259.522 325.295 179.066C268.781 126.026 212.926 153.252 212.926 153.252C181.861 218.972 166.266 290.937 167.338 363.624C166.73 423.91 177.235 483.791 198.327 540.268C218.519 593.687 262.31 634.739 316.912 651.436C367.598 665.429 420.037 672.029 472.608 671.032C522.224 671.859 571.729 666.093 619.828 653.886C678.992 637.396 726.536 593.316 747.455 535.558C767.316 480.435 777.204 422.215 776.654 363.624C777.41 298.795 765.176 234.472 740.674 174.45V174.45Z" fill="#FFFAF4"/>
</svg>
