<svg xmlns="http://www.w3.org/2000/svg" xmlns:xlink="http://www.w3.org/1999/xlink" width="200" height="200" viewBox="0 0 200 200"><defs><linearGradient id="a" x1="96.95" y1="183.47" x2="107.42" y2="-0.86" gradientUnits="userSpaceOnUse"><stop offset="0" stop-color="#422e1a"/><stop offset="1" stop-color="#a66121"/></linearGradient><linearGradient id="b" x1="100" y1="68.28" x2="100" y2="91.94" gradientUnits="userSpaceOnUse"><stop offset="0.05" stop-color="#fff"/><stop offset="0.12" stop-color="#ddd"/><stop offset="1"/></linearGradient></defs><title>cli-deps</title><path d="M188.3,82.08c1.37-2.57,2.61-4.77,3.31-6.35,5.31-11.94-4.5-21.12-13.92-25a13.84,13.84,0,0,0-7.57-11.48,21.23,21.23,0,0,0-5.21-1.89c-4.53-7-15.48-10.93-16.33-7.78-1.61-6-6.22-11.56-17.5-12.46-1.21-.1-2.34-.13-3.43-.13-3.74-6.48-13.46-11.71-32.82-11.07-21.19.71-25.06,10.81-25.29,17.44-6,.18-9.48,1.77-11.55,3.68-4.21-4.51-33.5,2.17-30.57,23.49C20.65,52,17.89,55.9,17.07,60.1c-2.53,1.23-5.75,5-2.5,16.37.13.43.24.85.36,1.26-5.61,5.24-5,14.66-.38,23.47-4.44,3.71-11.74,12.34-3.36,24.29-1,8.09-.06,13,4,17.86-5.4,8.11-4.31,17.53,1.38,21.32-.46,2.24-.92,4.53-1.3,6.81C13.52,182,25.07,190,25.07,190h143.1c11.54,4.2,7.7-.7,13.64-6.3s-5.24-15,2.1-21c6.77-5.48,5.81-13.63,1.52-22.53l.93-.65c5.22-7,4.72-14-.51-16.5,1.39-3.68,2.3-7-.18-9.74a58.53,58.53,0,0,0,5.3-6C199.93,95.76,193.47,86.74,188.3,82.08Z" fill="url(#a)"/><rect x="27.42" y="69.82" width="145.16" height="125.41" rx="5" fill="#1c211e" stroke="#666" stroke-miterlimit="10"/><path d="M32.42,69.82H167.58a5,5,0,0,1,5,5v6.83a0,0,0,0,1,0,0H27.42a0,0,0,0,1,0,0V74.82A5,5,0,0,1,32.42,69.82Z" fill="url(#b)"/><path d="M90.53,107.22l-44.64-.69a5.68,5.68,0,0,0-5.74,6.29l2.08,19.11a4.45,4.45,0,0,0,4.42,4H81.54a15.47,15.47,0,0,0,15.35-13.6l.83-6.83A7.36,7.36,0,0,0,90.53,107.22ZM96,115.84,95.18,122a14.33,14.33,0,0,1-14.41,12.25H48a4.12,4.12,0,0,1-4.15-3.58l-2-17.22a5.2,5.2,0,0,1,5.38-5.66l41.9.62A6.74,6.74,0,0,1,96,115.84Z" fill="#b3b3b3"/><path d="M107.63,119.69a6.48,6.48,0,0,0-5.28-2.46,6.06,6.06,0,0,0-5.14,2.46l.43-6.68s0-.81,4.78-.81,4.77.81,4.77.81Z" fill="#b3b3b3"/><path d="M135.68,58.55c.39,1.14.64,2.05.93,3.07s.53,2,.76,3l.7,3.15a28.52,28.52,0,0,1,.49,3.53,25.63,25.63,0,0,1-.4,7.08,17.75,17.75,0,0,1-2.89,6.9,12.22,12.22,0,0,1-6.22,4.62,12.84,12.84,0,0,1-7,.19,8.84,8.84,0,0,1-3.25-1.57,7.59,7.59,0,0,1-2.13-2.69,10.11,10.11,0,0,1-.72-6h0a9.09,9.09,0,0,0,2.44,4.75,4.73,4.73,0,0,0,4.09,1.26,9.57,9.57,0,0,0,2.17-.61,8.7,8.7,0,0,0,1.88-1,5.33,5.33,0,0,0,2-2.89,13,13,0,0,0-.78-8,16.56,16.56,0,0,0-.92-2l-.59-1-.67-1.13c-.45-.75-.92-1.5-1.4-2.23s-1-1.51-1.44-2.06Z" fill="#86511f"/><path d="M42.12,67.61A6.8,6.8,0,0,0,41.61,69c-.15.51-.27,1-.37,1.55a19.84,19.84,0,0,0-.35,3.16,10.15,10.15,0,0,0,1.44,5.85,5.46,5.46,0,0,0,2.37,1.93,6.33,6.33,0,0,0,3.18.52,2.44,2.44,0,0,0,1.4-.68A2.68,2.68,0,0,0,50,79.86a3.43,3.43,0,0,0-1.05-3.1,3.79,3.79,0,0,1,1.28,3.13,3,3,0,0,1-.6,1.7,3.06,3.06,0,0,1-1.55,1,7.81,7.81,0,0,1-3.66,0,11.08,11.08,0,0,1-1.86-.48,8.76,8.76,0,0,1-1.74-1A11.4,11.4,0,0,1,38,78.28a20.34,20.34,0,0,1-1.92-3.47,35,35,0,0,1-1.41-3.69c-.2-.63-.39-1.27-.57-1.91s-.36-1.25-.5-2.09Z" fill="#804e1e"/><path d="M175.48,70.21a22.56,22.56,0,0,0-1.9,1.31c-.65.49-1.28,1-1.9,1.53a28.24,28.24,0,0,0-3.4,3.43,14.55,14.55,0,0,0-2.47,4.07,7.07,7.07,0,0,0-.16,4.79l-.17.09a8.16,8.16,0,0,1-1.58-5.21,17.4,17.4,0,0,1,1.17-5.53,33,33,0,0,1,2.41-5c.47-.81,1-1.6,1.48-2.37s1-1.51,1.71-2.35Z" fill="#834f1f"/><path d="M25.88,129.63c1.64,1.29,3.19,2.57,4.76,3.91.78.68,1.56,1.36,2.34,2.09.39.37.78.74,1.19,1.16l.31.32c.13.14.28.28.4.42a6.83,6.83,0,0,1,.64.86A9.35,9.35,0,0,1,36.83,142a7.89,7.89,0,0,1-.25,3.64,5.53,5.53,0,0,1-2.1,2.88,6.76,6.76,0,0,1-3,1.07l-.14-.47a5.64,5.64,0,0,0,2.07-1.73,3.45,3.45,0,0,0,.59-2.2,5.27,5.27,0,0,0-2.12-3.7,1.45,1.45,0,0,0-.37-.19.88.88,0,0,0-.15-.05l-.28-.11c-.38-.15-.81-.31-1.25-.46-.87-.3-1.77-.6-2.69-.88-1.83-.56-3.72-1.11-5.55-1.59Z" fill="#5c3a1c"/><path d="M103.92,69.27c-.22.84-.43,1.44-.66,2.14s-.47,1.34-.73,2c-.52,1.32-1.07,2.62-1.72,3.91a29.05,29.05,0,0,1-2.24,3.8,14.76,14.76,0,0,1-3.31,3.46,8.2,8.2,0,0,1-2.37,1.23,6.49,6.49,0,0,1-2.72.27c-.22,0-.44-.06-.65-.1L89,85.84c-.35-.09-.69-.2-1-.32a10.62,10.62,0,0,1-2-.91,6.07,6.07,0,0,1-1.77-1.52,3.27,3.27,0,0,1-.73-2.31,2.83,2.83,0,0,1,1.08-1.94,3.11,3.11,0,0,1,1.87-.68A2.88,2.88,0,0,0,85,79.24a1.85,1.85,0,0,0-.31,1.51,2.64,2.64,0,0,0,2.26,1.62,8.88,8.88,0,0,0,1.65.16l.86,0,.43,0a2.65,2.65,0,0,0,.3-.06A3.16,3.16,0,0,0,91.92,81a15.32,15.32,0,0,0,1.84-6,30.63,30.63,0,0,0,.29-3.47c0-.59,0-1.18,0-1.76A15.93,15.93,0,0,0,94,68.13Z" fill="#834f1f"/><path d="M47.31,107.78l41.9.62A6.74,6.74,0,0,1,96,115.84L95.18,122a14.33,14.33,0,0,1-14.41,12.25H48a4.12,4.12,0,0,1-4.15-3.58l-2-17.22A5.2,5.2,0,0,1,47.31,107.78Z" fill="#f2f2f2"/><path d="M159,106.53l-44.65.69a7.36,7.36,0,0,0-7.19,8.25l.83,6.83a15.48,15.48,0,0,0,15.36,13.6h34.88a4.44,4.44,0,0,0,4.42-4l2.08-19.11A5.68,5.68,0,0,0,159,106.53Zm4,6.91L161,130.66a4.12,4.12,0,0,1-4.15,3.58H124.07A14.33,14.33,0,0,1,109.66,122l-.78-6.15a6.74,6.74,0,0,1,6.75-7.44l41.9-.62A5.2,5.2,0,0,1,162.91,113.44Z" fill="#b3b3b3"/><path d="M157.53,107.78l-41.9.62a6.74,6.74,0,0,0-6.75,7.44l.78,6.15a14.33,14.33,0,0,0,14.41,12.25h32.74a4.12,4.12,0,0,0,4.15-3.58l1.95-17.22A5.2,5.2,0,0,0,157.53,107.78Z" fill="#f2f2f2"/><path d="M49.26,173a2.27,2.27,0,0,0,.77-.13,2.19,2.19,0,0,0,.68-.35,1.87,1.87,0,0,0,.47-.54,1.37,1.37,0,0,0,.19-.66h1.39a2.19,2.19,0,0,1-.3,1.1,3.17,3.17,0,0,1-.77.91,4.22,4.22,0,0,1-1.12.63,3.66,3.66,0,0,1-1.31.24,4,4,0,0,1-1.72-.35,3.59,3.59,0,0,1-1.22-1,4,4,0,0,1-.74-1.37,5.51,5.51,0,0,1-.24-1.64v-.33a5.5,5.5,0,0,1,.24-1.63,4.07,4.07,0,0,1,.74-1.38,3.45,3.45,0,0,1,1.22-.94,3.86,3.86,0,0,1,1.72-.35,3.92,3.92,0,0,1,1.4.24,3.41,3.41,0,0,1,1.11.66,3.11,3.11,0,0,1,.73,1,3,3,0,0,1,.26,1.23H51.37a1.86,1.86,0,0,0-.17-.74,2.05,2.05,0,0,0-.45-.61,2,2,0,0,0-.66-.41,2.52,2.52,0,0,0-2,.12,2.25,2.25,0,0,0-.75.72,2.92,2.92,0,0,0-.41,1,5.24,5.24,0,0,0-.12,1.11v.33a5.26,5.26,0,0,0,.12,1.12,3.06,3.06,0,0,0,.41,1,2.35,2.35,0,0,0,.75.72A2.26,2.26,0,0,0,49.26,173Z" fill="#dedede"/><path d="M55.61,161.78H60v11h2.82V174H55.61v-1.28h2.93v-9.68H55.61Z" fill="#dedede"/><path d="M66.17,165.39h4.35v8.68a4.45,4.45,0,0,1-.23,1.47,2.85,2.85,0,0,1-.66,1.07,2.88,2.88,0,0,1-1.06.66,4.2,4.2,0,0,1-1.43.23q-.45,0-.84,0a6.69,6.69,0,0,1-.84-.11l.11-1.21.34,0,.42,0H67a2.77,2.77,0,0,0,.78-.11,1.5,1.5,0,0,0,.64-.36,1.85,1.85,0,0,0,.43-.68,3,3,0,0,0,.15-1v-7.39H66.17Zm2.66-2.27a.93.93,0,0,1,.22-.61.84.84,0,0,1,.66-.25.86.86,0,1,1,0,1.71.83.83,0,0,1-.66-.24A.93.93,0,0,1,68.83,163.12Z" fill="#dedede"/><path d="M82.07,167.8H75v-1.28h7.11Zm0,3.31H75v-1.28h7.11Z" fill="#dedede"/><path d="M84.79,166.77v-1.52l7,3v1.17l-7,3v-1.53L89.94,169l.48-.13-.48-.15Z" fill="#dedede"/></svg>