<?xml version="1.0" encoding="UTF-8"?>
<svg width="413px" height="413px" viewBox="0 0 413 413" version="1.1" xmlns="http://www.w3.org/2000/svg" xmlns:xlink="http://www.w3.org/1999/xlink">
    <!-- Generator: Sketch 53.2 (72643) - https://sketchapp.com -->
    <title>clj</title>
    <desc>Created with Sketch.</desc>
    <g id="Page-1" stroke="none" stroke-width="1" fill="none" fill-rule="evenodd">
        <g id="Clojure_logo" fill-rule="nonzero">
            <g id="Group-2">
                <path d="M206.498387,0 C92.6394492,0 0,92.6376399 0,206.49758 C0,320.3672 92.6394492,413 206.498387,413 C320.360551,413 413,320.3672 413,206.49758 C413,92.6376399 320.360551,0 206.498387,0" id="path8" fill="#FFFFFF"></path>
                <path d="M199.412816,210 C197.570372,214.007516 195.537275,218.510343 193.432083,223.302637 C185.990211,240.226834 177.74888,260.820835 174.738487,274.014118 C173.657052,278.713139 172.987364,284.53626 173.000181,290.992992 C173.000181,293.546738 173.136361,296.230744 173.352648,298.964604 C183.873804,302.845076 195.237678,304.979094 207.104619,305 C217.907749,304.979094 228.286315,303.187612 238,299.945577 C235.716972,297.850154 233.538081,295.61643 231.554651,293.099672 C218.385182,276.243017 211.037836,251.538579 199.412816,210" id="path10" fill="#91DC47"></path>
                <path d="M151.047374,126 C125.669583,143.794039 109.063044,173.141981 109,206.401267 C109.063044,239.163593 125.170077,268.13198 149.909342,286 C155.977768,260.851284 171.189247,237.823893 194,191.666181 C192.645354,187.963914 191.101575,183.911042 189.373512,179.653918 C183.054524,163.883098 173.934103,145.567975 165.794911,137.274061 C161.645297,132.941348 156.609828,129.197266 151.047374,126" id="path12" fill="#91DC47"></path>
                <path d="M292.363495,319.355332 C279.30668,317.7135 268.530778,315.731978 259.104079,312.394934 C243.248915,320.295139 225.393317,324.758012 206.486726,324.758012 C141.067245,324.758012 88.0356198,271.549707 88.02756,205.882887 C88.02756,170.252702 103.669947,138.31219 128.416642,116.528392 C121.797965,114.923764 114.895584,113.987192 107.844904,114.000132 C73.0879842,114.328499 36.3983332,133.630946 21.1234713,185.760333 C19.6952814,193.348348 20.0354033,199.085864 20.0354033,205.886123 C20.0354033,309.224499 103.520036,393 206.491562,393 C269.554367,393 325.263446,361.556082 359,313.465764 C340.752698,318.028926 323.204983,320.211026 308.178361,320.257935 C302.546199,320.257935 297.258995,319.95545 292.363495,319.355332" id="path14" fill="#63B132"></path>
                <path d="M258.44074,283.468652 C259.586707,284.039051 262.185197,284.970381 265.801254,286 C290.128188,268.071096 305.937405,239.191817 306,206.55177 L305.99037,206.55177 C305.898885,152.136652 262.035932,108.107957 207.82075,108 C197.044803,108.020947 186.692575,109.806264 177,113.03047 C196.932453,135.839993 206.517493,168.436535 215.789559,204.09293 C215.794374,204.109043 215.802399,204.121934 215.805609,204.134824 C215.823264,204.163827 218.771643,214.036245 223.833802,227.13448 C228.860651,240.21499 236.022146,256.408527 243.83206,268.209668 C248.960024,276.117914 254.599983,281.80096 258.44074,283.468652" id="path16" fill="#90B4FE"></path>
                <path d="M206.539754,20 C144.084896,20 88.8388489,50.6658098 55,97.6862895 C72.6109672,86.6856356 90.5926917,82.7175541 106.285393,82.8590416 C127.960182,82.9217463 145.000506,89.6247171 153.176508,94.2101986 C155.151193,95.3453143 157.025935,96.5672519 158.861989,97.8229536 C173.450479,91.4142125 189.570358,87.8303982 206.534918,87.8303982 C271.963892,87.8384373 325.004741,140.725825 325.014413,205.985331 L325.004741,205.985331 C325.004741,238.887608 311.512402,268.636965 289.76185,290.05946 C295.100754,290.655958 300.794295,291.027363 306.608735,290.998423 C327.259912,291.008069 349.581107,286.462783 366.315153,272.424971 C377.226699,263.257224 386.368282,249.833596 391.437984,229.706998 C392.429356,221.933224 393,214.030825 393,205.988547 C393,103.278262 309.521597,20 206.539754,20" id="path18" fill="#5881D8"></path>
            </g>
        </g>
    </g>
</svg>