<svg xmlns="http://www.w3.org/2000/svg" xmlns:xlink="http://www.w3.org/1999/xlink" width="200" height="200" viewBox="0 0 200 200"><defs><radialGradient id="a" cx="86.5" cy="88.51" r="85" gradientUnits="userSpaceOnUse"><stop offset="0" stop-color="#332d2b"/><stop offset="1" stop-color="#bda182"/></radialGradient><radialGradient id="b" cx="86.5" cy="88.51" r="57.98" gradientTransform="translate(-37.25 87.09) rotate(-45)" gradientUnits="userSpaceOnUse"><stop offset="0" stop-color="#332d2b"/><stop offset="1" stop-color="#ab9275"/></radialGradient><radialGradient id="c" cy="88.51" r="57.98" gradientTransform="translate(87.24 212.26) rotate(-136)" xlink:href="#b"/><radialGradient id="d" cy="88.51" r="52.95" gradientTransform="matrix(1, 0, 0, 1, 0, 0)" xlink:href="#b"/><radialGradient id="e" cy="88.51" r="52.95" gradientTransform="translate(-2.01 175.01) rotate(-90)" xlink:href="#b"/><linearGradient id="f" x1="115.04" y1="20.02" x2="120.09" y2="23.32" gradientUnits="userSpaceOnUse"><stop offset="0" stop-color="#4b6b43"/><stop offset="1" stop-color="#74a868"/></linearGradient><radialGradient id="g" cx="104.86" cy="40.45" r="126.87" gradientUnits="userSpaceOnUse"><stop offset="0.07" stop-color="#74a868"/><stop offset="0.1" stop-color="#7e9d6d"/><stop offset="0.16" stop-color="#98817a"/><stop offset="0.23" stop-color="#c2538e"/><stop offset="0.24" stop-color="#c74d91"/><stop offset="0.65" stop-color="#cc5080"/><stop offset="0.66" stop-color="#ca5080"/><stop offset="0.99" stop-color="#8c4a76"/></radialGradient><linearGradient id="h" x1="109.78" y1="26.07" x2="118" y2="31.44" xlink:href="#f"/><linearGradient id="i" x1="123.65" y1="15.04" x2="124.24" y2="7.28" gradientTransform="translate(96.08 -108.03) rotate(70.99)" gradientUnits="userSpaceOnUse"><stop offset="0" stop-color="#74a868"/><stop offset="1" stop-color="#4b6b43"/></linearGradient><radialGradient id="j" cx="124.72" cy="21.76" r="3.51" gradientTransform="matrix(0.96, 0.29, -0.29, 0.96, 10.06, -42.14)" gradientUnits="userSpaceOnUse"><stop offset="0.31" stop-color="#fff" stop-opacity="0.53"/><stop offset="0.33" stop-color="#fff" stop-opacity="0.51"/><stop offset="0.48" stop-color="#fff" stop-opacity="0.33"/><stop offset="0.62" stop-color="#fff" stop-opacity="0.18"/><stop offset="0.75" stop-color="#fff" stop-opacity="0.08"/><stop offset="0.87" stop-color="#fff" stop-opacity="0.02"/><stop offset="0.97" stop-color="#fff" stop-opacity="0"/></radialGradient><linearGradient id="k" x1="110.43" y1="19.32" x2="112" y2="20.34" gradientUnits="userSpaceOnUse"><stop offset="0" stop-color="#4b6b43"/><stop offset="1" stop-color="#a5c49e"/></linearGradient><linearGradient id="l" x1="52.44" y1="84.82" x2="70.18" y2="186.12" gradientUnits="userSpaceOnUse"><stop offset="0" stop-color="#8d576c"/><stop offset="0.99" stop-color="#504254"/></linearGradient><linearGradient id="m" x1="66.34" y1="116.31" x2="121.85" y2="116.31" xlink:href="#l"/><linearGradient id="n" x1="116.51" y1="112.14" x2="181.9" y2="112.14" xlink:href="#l"/><linearGradient id="o" x1="95.8" y1="121.44" x2="160.57" y2="121.44" xlink:href="#l"/><radialGradient id="p" cx="154.32" cy="89.87" fx="108.81092449184308" fy="81.15099404888285" r="50.8" gradientUnits="userSpaceOnUse"><stop offset="0" stop-color="#fff"/><stop offset="0.97" stop-color="#fff" stop-opacity="0"/></radialGradient><radialGradient id="q" cx="35.7" cy="123.79" fx="-10.024922202891702" fy="112.30766538483121" r="74.36" gradientTransform="matrix(1, 0, 0, 1, 0, 0)" xlink:href="#j"/><radialGradient id="r" cx="94.64" cy="155.79" r="51.3" gradientUnits="userSpaceOnUse"><stop offset="0"/><stop offset="0.74" stop-opacity="0"/></radialGradient><radialGradient id="s" cx="144.71" cy="149.51" r="46.67" gradientTransform="matrix(0.02, 1, -0.61, 0.01, 231.97, 2.84)" xlink:href="#r"/><radialGradient id="t" cx="86.31" cy="157.77" fx="62.64674683546623" r="63.94" gradientTransform="translate(191.09 261.51) rotate(170.54) scale(1 0.76)" gradientUnits="userSpaceOnUse"><stop offset="0" stop-color="#fff"/><stop offset="0.74"/></radialGradient><linearGradient id="u" x1="130.39" y1="145.99" x2="30.78" y2="147.6" gradientUnits="userSpaceOnUse"><stop offset="0" stop-color="#7d4518"/><stop offset="0.24" stop-color="#723f14"/><stop offset="0.66" stop-color="#562f0a"/><stop offset="1" stop-color="#3b1f00"/></linearGradient><radialGradient id="v" cx="171.52" cy="155.25" fx="148.94391239017745" fy="135.0222302369208" r="47.21" gradientTransform="translate(-43.17 88.12) rotate(-22.95) scale(1 0.94)" gradientUnits="userSpaceOnUse"><stop offset="0" stop-color="#fff"/><stop offset="0.73"/></radialGradient><linearGradient id="w" x1="136.56" y1="136.63" x2="200.83" y2="151.9" xlink:href="#u"/><linearGradient id="x" x1="128.62" y1="32.77" x2="117.05" y2="26.58" gradientTransform="matrix(1, 0, 0, 1, 0, 0)" xlink:href="#j"/></defs><title>lein-figwheel</title><path d="M86.5,3.51a85,85,0,1,0,85,85A85,85,0,0,0,86.5,3.51Zm0,147.59a62.59,62.59,0,1,1,62.59-62.59A62.59,62.59,0,0,1,86.5,151.1Z" fill="url(#a)"/><rect x="12" y="81.01" width="149" height="15" transform="translate(87.92 -35.24) rotate(45)" fill="url(#b)"/><rect x="12" y="81.01" width="149" height="15" transform="translate(210.2 92.08) rotate(136)" fill="url(#c)"/><rect x="12" y="81.01" width="149" height="15" fill="url(#d)"/><rect x="12" y="81.01" width="149" height="15" transform="translate(175.01 2.01) rotate(90)" fill="url(#e)"/><path d="M115.5,37.5l13-23S129,12,126,10a4.39,4.39,0,0,0-5.5.5l-15,16" fill="#74a868"/><path d="M118.12,12.71,105.5,26.5l15-16A4.39,4.39,0,0,1,126,10c3,2,2.5,4.5,2.5,4.5l-13,23" fill="url(#f)"/><path d="M111,24c-28,4-82.76,88.34-69.71,129.88s59.65,42.73,68.85,42.73,59.34,4.75,71.21-43.92-57-109.2-66.47-116.32" fill="url(#g)"/><path d="M114.5,37.5l13.81-22.67S130,12.25,126,10s-6.5.5-6.5.5l-15,16L103,27a11.23,11.23,0,0,0-7,9s-1,9,7,12,13,0,14-4S114.5,37.5,114.5,37.5Z" fill="url(#h)"/><ellipse cx="123.78" cy="13.35" rx="3.5" ry="4.5" transform="translate(70.84 126.03) rotate(-70.99)" fill="url(#i)"/><path d="M127.55,15c-1.13,1.57-3.68,1.66-5.7.21a4.65,4.65,0,0,1-2.11-4.1c-.77,1.56,0,3.73,1.83,5.06,2,1.45,4.56,1.36,5.69-.21a2.77,2.77,0,0,0,.51-1.37A3.23,3.23,0,0,1,127.55,15Z" fill="url(#j)"/><path d="M118.17,12.56,106.1,25.83l-2.23,1s1.1,1,2.8-.65,9.84-10.94,9.84-10.94A5.14,5.14,0,0,0,118.17,12.56Z" fill="url(#k)"/><path d="M48.5,99.5c-1,14-9,21,1,42s19,28,25,48L86,193s-1-26-20-56-8-57-8-57Z" opacity="0.36" fill="url(#l)"/><path d="M83.5,53.5a64.83,64.83,0,0,1,8.66-14,19,19,0,0,1-.88-3.35C80,46.16,64.57,64.35,66.5,87.5c3,36,48,65,38,108l13,1c15-37-12.3-68.17-29-96C79.65,85.74,76.44,68.62,83.5,53.5Z" opacity="0.36" fill="url(#m)"/><path d="M173.5,114.5c-14-26-28-30-39-48-5.21-8.52-9-15.3-11.44-19.72a19,19,0,0,1-6.55,4,79.21,79.21,0,0,0,9,20.67c11,18,28,27,42,53s8,46,4,53l2-2C181.5,168.5,187.5,140.5,173.5,114.5Z" opacity="0.36" fill="url(#n)"/><path d="M107.31,51.79a19,19,0,0,1-9.1-3.91c-2.38,5.89-4.06,15,.29,26.62,8.69,23.08,31.55,47.29,38,69,6.54,22,2.56,42.43-5.5,51.5l12.5-1.5s8-3,16-33-31-64-44-87C110,63.73,107.89,56.68,107.31,51.79Z" opacity="0.36" fill="url(#o)"/><path d="M123,44s22,43,18,75,31,43,38,32,5-31-6-50S129,45,123,44Z" opacity="0.32" fill="url(#p)"/><path d="M83,55S51,96,49,134s26,49,26,49-11-15.4-13-41C60.23,119.68,64.83,88.54,83,55Z" opacity="0.83" fill="url(#q)"/><path d="M44.69,172.14c-23.08-19.08-21.63-55.51-21.63-55.51s6.69,50,46.16,41.63c24.52-5.2,34.62-20.81,50.49-19.08s20.2,31.22,7.22,43.37c-8.12,7.58-15.87,6.93-40.4,5.2S53.35,179.29,44.69,172.14Z" fill="url(#r)"/><path d="M157.41,181.3a71.71,71.71,0,0,0,26.19-44.87c-7.06,3.42-21.18-4.16-36.58.63-18.58,5.78-16.73,33.83-4.2,41.49C146.72,180.93,151.86,181.71,157.41,181.3Z" fill="url(#s)"/><path d="M44.69,166.43c-23.08-19.08-21.63-55.51-21.63-55.51s6.69,50,46.16,41.63c24.52-5.2,34.62-20.82,50.49-19.08s20.2,31.22,7.22,43.36c-8.12,7.59-15.87,6.94-40.4,5.21S53.35,173.58,44.69,166.43Z" fill="url(#t)"/><path d="M44.69,166.43c-23.08-19.08-21.63-55.51-21.63-55.51s6.69,50,46.16,41.63c24.52-5.2,34.62-20.82,50.49-19.08s20.2,31.22,7.22,43.36c-8.12,7.59-15.87,6.94-40.4,5.21S53.35,173.58,44.69,166.43Z" opacity="0.82" fill="url(#u)"/><path d="M142.82,172.84c-12.53-7.66-14.38-35.72,4.2-41.49s35.31,6.46,40-4.36,0-11.76,3.56-13,13.42,31.9.72,45.87C180.62,171.59,155.35,180.49,142.82,172.84Z" fill="url(#v)"/><path d="M142.82,172.84c-12.53-7.66-14.38-35.72,4.2-41.49s35.31,6.46,40-4.36,0-11.76,3.56-13,13.42,31.9.72,45.87C180.62,171.59,155.35,180.49,142.82,172.84Z" opacity="0.82" fill="url(#w)"/><path d="M23.26,111.91c.44,9.53,4.24,22.14,7.23,27.54s10.14,23.42,35.84,24c17.29.37,29.28-8.43,39.68-9.75,5.07-.64,11.74-1.67,17.45,4s5.71,12.85,4.29,18.57" fill="none" stroke="#997764" stroke-miterlimit="10" opacity="0.24"/><path d="M23.05,111.77c1.5,5.34,1.87,18.8,13.29,33.08s30,14.28,45.7,8.57,21.43-10,28.57-11.43,14.28,2.86,17.14,5.71A21,21,0,0,1,134,165.11" fill="none" stroke="#997764" stroke-miterlimit="10" opacity="0.24"/><path d="M22.9,112.76c1.15,11.26,2.42,22.88,7.94,32.77,2.45,4.39,11.22,23.6,32.64,25s34.27-8.56,45.7-5.71,10,11.43,8.57,17.14" fill="none" stroke="#997764" stroke-miterlimit="10" opacity="0.24"/><path d="M190.59,114.86c.91,3.41,2.85,8.56,1.42,15.71s-4.28,11.42-11.42,14.28-28.57,1.43-34.28,11.42,1.43,14.28,1.43,18.57" fill="none" stroke="#997764" stroke-miterlimit="10" opacity="0.24"/><path d="M190.59,114.86c.22,2.81,1,.66.49,8.9s-4.78,14-13.35,15.37-14.28,0-24.28,1.43-16.23,9.53-16.66,13.36a27.68,27.68,0,0,0,3.28,16.9" fill="none" stroke="#997764" stroke-miterlimit="10" opacity="0.24"/><path d="M190.59,114.86c3.18,6.4,2.46,8.56,2.85,15.71s-.85,12.65-5.71,17.13c-3.88,3.59-9.62,5.3-15.52,6.94s-13,4.49-14.47,8.77.85,8.26,3.93,11.63" fill="none" stroke="#997764" stroke-miterlimit="10" opacity="0.24"/><path d="M131.58,18.11s-13,21.42-13.87,22.59-6.88.94-4.94-2.57c1.16-2.11,10.64-15.42,15.08-20A3.5,3.5,0,0,0,131.58,18.11Z" opacity="0.71" fill="url(#x)"/></svg>