<?xml version="1.0" encoding="UTF-8"?>
<svg width="438px" height="439px" viewBox="0 0 438 439" version="1.1" xmlns="http://www.w3.org/2000/svg" xmlns:xlink="http://www.w3.org/1999/xlink">
    <!-- Generator: Sketch 53.2 (72643) - https://sketchapp.com -->
    <title>cljs</title>
    <desc>Created with Sketch.</desc>
    <g id="Page-1" stroke="none" stroke-width="1" fill="none" fill-rule="evenodd">
        <g id="cljs" transform="translate(-1.000000, 0.000000)">
            <circle id="Oval" fill="#FFFFFF" cx="220" cy="220" r="220"></circle>
            <g id="Group" transform="translate(90.000000, 152.000000)" fill-rule="nonzero">
                <path d="M39,119.6 C26.3,119.6 16.7,115.9 10.1,108.5 C3.5,101.1 0.2,90.5 0.2,76.7 C0.2,62.6 3.6,51.8 10.5,44.2 C17.4,36.6 27.3,32.8 40.4,32.8 C49.2,32.8 57.2,34.4 64.2,37.7 L58.8,52 C51.3,49.1 45.1,47.6 40.2,47.6 C25.7,47.6 18.5,57.2 18.5,76.4 C18.5,85.8 20.3,92.8 23.9,97.6 C27.5,102.3 32.8,104.7 39.8,104.7 C47.7,104.7 55.2,102.7 62.3,98.8 L62.3,114.3 C59.1,116.2 55.7,117.5 52.1,118.3 C48.5,119.2 44.1,119.6 39,119.6 Z" id="Shape" fill="#96CA4B"></path>
                <polygon id="Shape" fill="#96CA4B" points="111.4 118.1 93.6 118.1 93.6 0.3 111.4 0.3"></polygon>
                <path d="M139.9,155.3 C134.6,155.3 130.1,154.7 126.6,153.4 L126.6,139.3 C130,140.2 133.5,140.7 137.1,140.7 C144.7,140.7 148.5,136.4 148.5,127.8 L148.5,34.3 L166.3,34.3 L166.3,129 C166.3,137.6 164,144.2 159.5,148.6 C154.9,153.1 148.4,155.3 139.9,155.3 Z M147.4,12.2 C147.4,9 148.3,6.6 150,4.9 C151.7,3.2 154.2,2.3 157.5,2.3 C160.6,2.3 163.1,3.2 164.8,4.9 C166.5,6.6 167.4,9.1 167.4,12.2 C167.4,15.2 166.5,17.6 164.8,19.4 C163.1,21.1 160.6,22 157.5,22 C154.3,22 151.8,21.1 150,19.4 C148.2,17.6 147.4,15.2 147.4,12.2 Z" id="Shape" fill="#5F7FBF"></path>
                <path d="M259.5,94.3 C259.5,102.5 256.5,108.7 250.6,113.1 C244.6,117.5 236.1,119.6 225,119.6 C213.8,119.6 204.9,117.9 198.1,114.5 L198.1,99.1 C207.9,103.6 217.1,105.9 225.6,105.9 C236.5,105.9 242,102.6 242,96 C242,93.9 241.4,92.1 240.2,90.7 C239,89.3 237,87.8 234.2,86.3 C231.4,84.8 227.6,83.1 222.6,81.2 C213,77.5 206.4,73.7 203,70 C199.6,66.3 197.9,61.4 197.9,55.5 C197.9,48.3 200.8,42.8 206.6,38.8 C212.4,34.8 220.2,32.9 230.2,32.9 C240,32.9 249.3,34.9 258.1,38.9 L252.3,52.3 C243.3,48.6 235.7,46.7 229.5,46.7 C220.1,46.7 215.4,49.4 215.4,54.7 C215.4,57.3 216.6,59.5 219.1,61.4 C221.5,63.2 226.9,65.7 235.1,68.9 C242,71.6 247,74 250.2,76.2 C253.3,78.4 255.6,81 257.2,83.9 C258.7,86.7 259.5,90.2 259.5,94.3 Z" id="Shape" fill="#5F7FBF"></path>
            </g>
            <path d="M204,397.7 C112.8,389.6 41,312.7 41,219.4 C41,126.1 112.8,49.3 204,41.2 L204,21.1 C101.7,29.3 21,115.1 21,219.5 C21,323.9 101.7,409.7 204,417.9 L204,397.7 Z" id="Shape" stroke="#96CA4B" stroke-width="6" fill="#96CA4B" fill-rule="nonzero"></path>
            <path d="M236,21.1 L236,41.2 C327.2,49.3 399,126.2 399,219.5 C399,312.8 327.2,389.7 236,397.8 L236,417.9 C338.3,409.7 419,323.9 419,219.5 C419,115.1 338.3,29.3 236,21.1 Z" id="Shape" stroke="#5F7FBF" stroke-width="6" fill="#5F7FBF" fill-rule="nonzero"></path>
        </g>
    </g>
</svg>