<svg xmlns="http://www.w3.org/2000/svg" xmlns:xlink="http://www.w3.org/1999/xlink" width="200" height="200" viewBox="0 0 200 200"><defs><linearGradient id="a" x1="64.26" y1="50.07" x2="121.55" y2="193.59" gradientUnits="userSpaceOnUse"><stop offset="0" stop-color="#c7ff38"/><stop offset="1" stop-color="#fff200"/></linearGradient><linearGradient id="b" x1="40.18" y1="36.36" x2="127.87" y2="182.31" gradientUnits="userSpaceOnUse"><stop offset="0" stop-color="#5fb828"/><stop offset="0.13" stop-color="#788a3e"/><stop offset="0.27" stop-color="#8f6052"/><stop offset="0.41" stop-color="#a23e63"/><stop offset="0.55" stop-color="#b1236f"/><stop offset="0.7" stop-color="#bc0f79"/><stop offset="0.84" stop-color="#c2047e"/><stop offset="1" stop-color="#c40080"/></linearGradient><radialGradient id="c" cx="95.44" cy="127.37" r="72.02" gradientTransform="translate(-4.5 -63.57) rotate(-1.34) scale(1 1.52)" gradientUnits="userSpaceOnUse"><stop offset="0" stop-opacity="0"/><stop offset="0.69" stop-opacity="0.4"/><stop offset="0.81" stop-opacity="0.68"/></radialGradient><radialGradient id="d" cx="34.69" cy="99.25" r="77.09" gradientUnits="userSpaceOnUse"><stop offset="0" stop-color="#fff" stop-opacity="0.66"/><stop offset="1" stop-color="#fff" stop-opacity="0"/></radialGradient><linearGradient id="e" x1="75.56" y1="76.18" x2="117.19" y2="185.3" gradientUnits="userSpaceOnUse"><stop offset="0"/><stop offset="1" stop-color="#fff"/></linearGradient><radialGradient id="f" cx="95.28" cy="126.98" fy="90.49407632521638" r="48.66" gradientUnits="userSpaceOnUse"><stop offset="0" stop-color="#ffa8d8"/><stop offset="0.9" stop-color="#ad0334"/><stop offset="1" stop-color="#ff7bac"/></radialGradient><radialGradient id="g" cx="95.28" cy="127.28" r="47.05" gradientUnits="userSpaceOnUse"><stop offset="0" stop-color="#590043"/><stop offset="0.46" stop-color="#570042" stop-opacity="0.98"/><stop offset="0.63" stop-color="#50003c" stop-opacity="0.9"/><stop offset="0.74" stop-color="#450034" stop-opacity="0.77"/><stop offset="0.84" stop-color="#340027" stop-opacity="0.58"/><stop offset="0.92" stop-color="#1e0017" stop-opacity="0.34"/><stop offset="0.99" stop-color="#030003" stop-opacity="0.04"/><stop offset="1" stop-opacity="0"/></radialGradient><radialGradient id="h" cx="95.28" cy="127.28" r="47.05" xlink:href="#g"/><radialGradient id="i" cx="95.28" cy="127.28" r="47.4" xlink:href="#g"/><radialGradient id="j" cx="95.28" cy="127.28" r="47.4" xlink:href="#g"/><radialGradient id="k" cx="79.56" cy="95.2" r="3.9" gradientUnits="userSpaceOnUse"><stop offset="0.01" stop-color="#fff"/><stop offset="0.4" stop-color="#ffe100"/><stop offset="0.53" stop-color="#fcde00"/><stop offset="0.62" stop-color="#f4d400"/><stop offset="0.7" stop-color="#e6c400"/><stop offset="0.78" stop-color="#d2ad00"/><stop offset="0.86" stop-color="#b88f00"/><stop offset="0.93" stop-color="#986b00"/><stop offset="0.99" stop-color="#744000"/><stop offset="1" stop-color="#703c00"/></radialGradient><radialGradient id="l" cx="88.11" cy="97.96" r="3.9" xlink:href="#k"/><radialGradient id="m" cx="84.27" cy="106.14" r="3.9" xlink:href="#k"/><radialGradient id="n" cx="66.67" cy="111.11" r="3.9" xlink:href="#k"/><radialGradient id="o" cx="72.76" cy="118.76" r="3.9" xlink:href="#k"/><radialGradient id="p" cx="59.67" cy="132.63" r="3.9" xlink:href="#k"/><radialGradient id="q" cx="63.91" cy="140.92" r="3.9" xlink:href="#k"/><radialGradient id="r" cx="70.91" cy="134.18" r="3.9" xlink:href="#k"/><radialGradient id="s" cx="78.74" cy="135.39" r="3.9" xlink:href="#k"/><radialGradient id="t" cx="89.24" cy="138.16" r="3.9" xlink:href="#k"/><radialGradient id="u" cx="81.51" cy="147.75" r="3.9" xlink:href="#k"/><radialGradient id="v" cx="89.24" cy="155" r="3.9" xlink:href="#k"/><radialGradient id="w" cx="99.27" cy="138.15" r="3.9" xlink:href="#k"/><radialGradient id="x" cx="99.27" cy="146.45" r="3.9" xlink:href="#k"/><radialGradient id="y" cx="107.38" cy="146.45" r="3.9" xlink:href="#k"/><radialGradient id="z" cx="100.84" cy="154.74" r="3.9" xlink:href="#k"/><radialGradient id="aa" cx="111.34" cy="153.96" r="3.9" xlink:href="#k"/><radialGradient id="ab" cx="106.37" cy="129.86" r="3.9" xlink:href="#k"/><radialGradient id="ac" cx="114.1" cy="130.77" r="3.9" xlink:href="#k"/><radialGradient id="ad" cx="114.1" cy="138.16" r="3.9" xlink:href="#k"/><radialGradient id="ae" cx="119.63" cy="143.68" r="3.9" xlink:href="#k"/><radialGradient id="af" cx="123.39" cy="136.3" r="3.9" xlink:href="#k"/><radialGradient id="ag" cx="129.48" cy="130.77" r="3.9" xlink:href="#k"/><radialGradient id="ah" cx="130.52" cy="139.71" r="3.9" xlink:href="#k"/><radialGradient id="ai" cx="126.15" cy="149.21" r="3.9" xlink:href="#k"/><radialGradient id="aj" cx="108.58" cy="118.76" r="3.9" xlink:href="#k"/><radialGradient id="ak" cx="116.09" cy="117.85" r="3.9" xlink:href="#k"/><radialGradient id="al" cx="120.63" cy="111.11" r="3.9" xlink:href="#k"/><radialGradient id="am" cx="126.72" cy="107.07" r="3.9" xlink:href="#k"/><radialGradient id="an" cx="127.75" cy="114.59" r="3.9" xlink:href="#k"/><radialGradient id="ao" cx="124.99" cy="120.62" r="3.9" xlink:href="#k"/><radialGradient id="ap" cx="100.84" cy="85.89" r="3.9" xlink:href="#k"/><radialGradient id="aq" cx="102.04" cy="95.2" r="3.9" xlink:href="#k"/><radialGradient id="ar" cx="111.9" cy="92.43" r="3.9" xlink:href="#k"/><radialGradient id="as" cx="107.74" cy="100.73" r="3.9" xlink:href="#k"/><radialGradient id="at" cx="100.36" cy="104.51" r="3.9" xlink:href="#k"/><radialGradient id="au" cx="100.84" cy="111.11" r="3.9" xlink:href="#k"/><radialGradient id="av" cx="73.67" cy="155" r="3.9" xlink:href="#k"/><radialGradient id="aw" cx="79.56" cy="162.79" r="3.9" xlink:href="#k"/><linearGradient id="ax" x1="93.63" y1="59.04" x2="95.52" y2="149.64" gradientUnits="userSpaceOnUse"><stop offset="0" stop-color="#fff"/><stop offset="1" stop-color="#fff" stop-opacity="0"/></linearGradient></defs><title>figwheel-main</title><path d="M59.16,25.92,53,33.06a44.36,44.36,0,0,1,6.13,28.11c-1.82,16.64-37.37,54.77-18.54,93.19,14.16,28.88,41.79,37.95,69.42,34s52.35-35.56,45.62-70.32-37-48.18-71.32-63C61.74,45.25,59.16,25.92,59.16,25.92Z" stroke-miterlimit="10" fill="url(#a)" stroke="url(#b)"/><path d="M59.16,25.92,53,33.06a44.36,44.36,0,0,1,6.13,28.11c-1.82,16.64-37.37,54.77-18.54,93.19,14.16,28.88,41.79,37.95,69.42,34s52.35-35.56,45.62-70.32-37-48.18-71.32-63C61.74,45.25,59.16,25.92,59.16,25.92Z" opacity="0.47" fill="url(#c)"/><path d="M98.61,189.74c-25.76,0-46.33-12.41-57.48-35.16-13.4-27.34.37-54.25,10.42-73.91,4.05-7.91,7.55-14.75,8.07-19.55a44.22,44.22,0,0,0-6-27.77l.82-.57a45.34,45.34,0,0,1,6.22,28.44c-.55,5-4.08,11.9-8.18,19.91-9.95,19.46-23.59,46.12-10.41,73,12.69,25.89,37.8,38.17,68.9,33.69l.14,1A88.18,88.18,0,0,1,98.61,189.74Z" fill="url(#d)"/><circle cx="94.92" cy="126.92" r="50.45" opacity="0.42" fill="url(#e)"/><circle cx="95.28" cy="126.98" r="48.66" fill="url(#f)"/><g opacity="0.29"><line x1="95.28" y1="60.74" x2="95.28" y2="193.81" fill="none" stroke-miterlimit="10" stroke="url(#g)"/><line x1="161.81" y1="127.28" x2="28.74" y2="127.28" fill="none" stroke-miterlimit="10" stroke="url(#h)"/><line x1="142.32" y1="80.23" x2="48.23" y2="174.32" fill="none" stroke-miterlimit="10" stroke="url(#i)"/><line x1="142.32" y1="174.33" x2="48.23" y2="80.23" fill="none" stroke-miterlimit="10" stroke="url(#j)"/></g><g opacity="0.25"><circle cx="80.12" cy="96.62" r="2.76" fill="url(#k)"/><circle cx="88.68" cy="99.38" r="2.76" fill="url(#l)"/><circle cx="84.83" cy="107.56" r="2.76" fill="url(#m)"/><circle cx="67.24" cy="112.53" r="2.76" fill="url(#n)"/><circle cx="73.32" cy="120.18" r="2.76" fill="url(#o)"/><circle cx="60.23" cy="134.05" r="2.76" fill="url(#p)"/><circle cx="64.47" cy="142.34" r="2.76" fill="url(#q)"/><circle cx="71.47" cy="135.6" r="2.76" fill="url(#r)"/><circle cx="79.31" cy="136.81" r="2.76" fill="url(#s)"/><circle cx="89.8" cy="139.58" r="2.76" fill="url(#t)"/><circle cx="82.07" cy="149.17" r="2.76" fill="url(#u)"/><circle cx="89.8" cy="156.42" r="2.76" fill="url(#v)"/><circle cx="99.84" cy="139.57" r="2.76" fill="url(#w)"/><circle cx="99.84" cy="147.87" r="2.76" fill="url(#x)"/><circle cx="107.95" cy="147.87" r="2.76" fill="url(#y)"/><circle cx="101.41" cy="156.16" r="2.76" fill="url(#z)"/><circle cx="111.9" cy="155.38" r="2.76" fill="url(#aa)"/><circle cx="106.93" cy="131.28" r="2.76" fill="url(#ab)"/><circle cx="114.67" cy="132.19" r="2.76" fill="url(#ac)"/><circle cx="114.67" cy="139.58" r="2.76" fill="url(#ad)"/><circle cx="120.2" cy="145.1" r="2.76" fill="url(#ae)"/><circle cx="123.95" cy="137.72" r="2.76" fill="url(#af)"/><circle cx="130.04" cy="132.19" r="2.76" fill="url(#ag)"/><circle cx="131.08" cy="141.13" r="2.76" fill="url(#ah)"/><circle cx="126.72" cy="150.63" r="2.76" fill="url(#ai)"/><circle cx="109.14" cy="120.18" r="2.76" fill="url(#aj)"/><circle cx="116.66" cy="119.28" r="2.76" fill="url(#ak)"/><circle cx="121.19" cy="112.53" r="2.76" fill="url(#al)"/><circle cx="127.28" cy="108.49" r="2.76" fill="url(#am)"/><circle cx="128.32" cy="116.01" r="2.76" fill="url(#an)"/><circle cx="125.55" cy="122.04" r="2.76" fill="url(#ao)"/><circle cx="101.41" cy="87.31" r="2.76" fill="url(#ap)"/><circle cx="102.6" cy="96.62" r="2.76" fill="url(#aq)"/><circle cx="112.46" cy="93.85" r="2.76" fill="url(#ar)"/><circle cx="108.31" cy="102.15" r="2.76" fill="url(#as)"/><circle cx="100.92" cy="105.93" r="2.76" fill="url(#at)"/><circle cx="101.41" cy="112.53" r="2.76" fill="url(#au)"/><circle cx="74.24" cy="156.42" r="2.76" fill="url(#av)"/><circle cx="80.12" cy="164.21" r="2.76" fill="url(#aw)"/></g><circle cx="94.92" cy="120.92" r="41.4" opacity="0.61" fill="url(#ax)"/></svg>