<?xml version="1.0" encoding="UTF-8"?>
<svg width="191px" height="191px" viewBox="0 0 191 191" version="1.1" xmlns="http://www.w3.org/2000/svg" xmlns:xlink="http://www.w3.org/1999/xlink">
    <!-- Generator: Sketch 53.2 (72643) - https://sketchapp.com -->
    <title>clojure-cli</title>
    <desc>Created with Sketch.</desc>
    <defs>
        <linearGradient x1="47.6390103%" y1="94.4912175%" x2="53.2057554%" y2="-2.27948754%" id="linearGradient-1">
            <stop stop-color="#422E1A" offset="0%"></stop>
            <stop stop-color="#A66121" offset="100%"></stop>
        </linearGradient>
        <linearGradient x1="50%" y1="-13.0177515%" x2="50%" y2="186.982249%" id="linearGradient-2">
            <stop stop-color="#FFFFFF" offset="5%"></stop>
            <stop stop-color="#DDDDDD" offset="12%"></stop>
            <stop stop-color="#000000" offset="100%"></stop>
        </linearGradient>
    </defs>
    <g id="Page-4" stroke="none" stroke-width="1" fill="none" fill-rule="evenodd">
        <g id="cli-deps" fill-rule="nonzero">
            <path d="M181.3,77.08 C182.67,74.51 183.91,72.31 184.61,70.73 C189.92,58.79 180.11,49.61 170.69,45.73 C170.380697,40.8317791 167.50037,36.4637278 163.12,34.25 C161.47338,33.395049 159.721792,32.759636 157.91,32.36 C153.38,25.36 142.43,21.43 141.58,24.58 C139.97,18.58 135.36,13.02 124.08,12.12 C122.87,12.02 121.74,11.99 120.65,11.99 C116.91,5.51 107.19,0.28 87.83,0.92 C66.64,1.63 62.77,11.73 62.54,18.36 C56.54,18.54 53.06,20.13 50.99,22.04 C46.78,17.53 17.49,24.21 20.42,45.53 C13.65,47 10.89,50.9 10.07,55.1 C7.54,56.33 4.32,60.1 7.57,71.47 C7.7,71.9 7.81,72.32 7.93,72.73 C2.32,77.97 2.93,87.39 7.55,96.2 C3.11,99.91 -4.19,108.54 4.19,120.49 C3.19,128.58 4.13,133.49 8.19,138.35 C2.79,146.46 3.88,155.88 9.57,159.67 C9.11,161.91 8.65,164.2 8.27,166.48 C6.52,177 18.07,185 18.07,185 L161.17,185 C172.71,189.2 168.87,184.3 174.81,178.7 C180.75,173.1 169.57,163.7 176.91,157.7 C183.68,152.22 182.72,144.07 178.43,135.17 L179.36,134.52 C184.58,127.52 184.08,120.52 178.85,118.02 C180.24,114.34 181.15,111.02 178.67,108.28 C180.571535,106.403306 182.342342,104.398618 183.97,102.28 C192.93,90.76 186.47,81.74 181.3,77.08 Z" id="Path" fill="url(#linearGradient-1)"></path>
            <rect id="Rectangle" stroke="#666666" fill="#1C211E" x="20.42" y="64.82" width="145.16" height="125.41" rx="5"></rect>
            <path d="M25.42,64.82 L160.58,64.82 C163.341424,64.82 165.58,67.0585763 165.58,69.82 L165.58,76.65 L20.42,76.65 L20.42,69.82 C20.42,67.0585763 22.6585763,64.82 25.42,64.82 Z" id="Path" fill="url(#linearGradient-2)"></path>
            <path d="M83.53,102.22 L38.89,101.53 C37.2612723,101.503348 35.6994899,102.177254 34.6014592,103.380497 C33.5034286,104.58374 32.9748424,106.200499 33.15,107.82 L35.23,126.93 C35.4606268,129.198981 37.3693308,130.926315 39.65,130.93 L74.54,130.93 C82.3581262,130.926684 88.9449524,125.090799 89.89,117.33 L90.72,110.5 C90.9818582,108.423525 90.347296,106.333767 88.9750527,104.753493 C87.6028095,103.173218 85.6226781,102.251896 83.53,102.22 Z M89,110.84 L88.18,117 C87.1359261,124.123431 80.9685995,129.366301 73.77,129.25 L41,129.25 C38.9084246,129.283242 37.123909,127.743829 36.85,125.67 L34.85,108.45 C34.7166563,106.96119 35.2304452,105.486997 36.2602688,104.403577 C37.2900925,103.320157 38.7363444,102.732299 40.23,102.79 L82.13,103.41 C84.0662731,103.362406 85.9294408,104.1501 87.2443649,105.572209 C88.5592891,106.994318 89.1988685,108.913379 89,110.84 L89,110.84 Z" id="Shape" fill="#B3B3B3"></path>
            <path d="M100.63,114.69 C99.3585087,113.08059 97.4001385,112.168167 95.35,112.23 C93.3339516,112.14307 91.4068921,113.065359 90.21,114.69 L90.64,108.01 C90.64,108.01 90.64,107.2 95.42,107.2 C100.2,107.2 100.19,108.01 100.19,108.01 L100.63,114.69 Z" id="Path" fill="#B3B3B3"></path>
            <path d="M128.68,53.55 C129.07,54.69 129.32,55.6 129.61,56.62 C129.9,57.64 130.14,58.62 130.37,59.62 L131.07,62.77 C131.306763,63.9353011 131.470416,65.1142689 131.56,66.3 C131.75537,68.6671337 131.620748,71.0499351 131.16,73.38 C130.697779,75.8591883 129.712569,78.211421 128.27,80.28 C126.7527,82.4539291 124.569587,84.0754695 122.05,84.9 C119.779337,85.6106667 117.35587,85.6764465 115.05,85.09 C113.870221,84.7957508 112.76383,84.2612787 111.8,83.52 C110.893975,82.7976758 110.165359,81.8774989 109.67,80.83 C108.823904,78.9501784 108.572679,76.8566316 108.95,74.83 L108.95,74.83 C109.269425,76.6219136 110.119446,78.2766665 111.39,79.58 C112.474498,80.6280215 113.993756,81.096057 115.48,80.84 C116.224838,80.7228607 116.953222,80.5181074 117.65,80.23 C118.31525,79.974905 118.946645,79.6390567 119.53,79.23 C120.504234,78.5204911 121.209248,77.501746 121.53,76.34 C122.121631,73.657892 121.848575,70.8573129 120.75,68.34 C120.488035,67.6536649 120.180689,66.9855223 119.83,66.34 L119.24,65.34 L118.57,64.21 C118.12,63.46 117.65,62.71 117.17,61.98 C116.69,61.25 116.17,60.47 115.73,59.92 L128.68,53.55 Z" id="Path" fill="#86511F"></path>
            <path d="M35.12,62.61 C34.8999141,63.0533895 34.7289006,63.519485 34.61,64 C34.46,64.51 34.34,65 34.24,65.55 C34.0389879,66.5922745 33.9219456,67.6489998 33.89,68.71 C33.7668805,70.7607972 34.2690048,72.8006772 35.33,74.56 C35.9201537,75.4158393 36.742373,76.0854103 37.7,76.49 C38.6973979,76.9347405 39.792891,77.1138777 40.88,77.01 C41.4083848,76.942238 41.9000759,76.7034165 42.28,76.33 C42.6674269,75.9270757 42.9191724,75.4130953 43,74.86 C43.1973792,73.7155437 42.8022393,72.5489403 41.95,71.76 C42.8442715,72.5446112 43.3182339,73.7035975 43.23,74.89 C43.2090187,75.5047789 42.9995589,76.0982484 42.63,76.59 C42.228492,77.0748303 41.6872267,77.4240337 41.08,77.59 C39.8772217,77.8798996 38.6227783,77.8798996 37.42,77.59 C36.7872734,77.4841477 36.1649352,77.3235443 35.56,77.11 C34.9436063,76.8444248 34.3597759,76.5088901 33.82,76.11 C32.7207429,75.340018 31.7660861,74.3819758 31,73.28 C30.2484989,72.1886352 29.6054431,71.0264459 29.08,69.81 C28.5409085,68.6075248 28.0701589,67.3755632 27.67,66.12 C27.47,65.49 27.28,64.85 27.1,64.21 C26.92,63.57 26.74,62.96 26.6,62.12 L35.12,62.61 Z" id="Path" fill="#804E1E"></path>
            <path d="M168.48,65.21 C167.824732,65.6139652 167.190569,66.0512038 166.58,66.52 C165.93,67.01 165.3,67.52 164.68,68.05 C163.450801,69.0941469 162.313309,70.2416756 161.28,71.48 C160.23879,72.6918511 159.404288,74.0669213 158.81,75.55 C158.200607,77.0793408 158.14402,78.7734024 158.65,80.34 L158.48,80.43 C157.372433,78.9254172 156.814706,77.0863333 156.9,75.22 C156.985987,73.3252181 157.381201,71.4572431 158.07,69.69 C158.731495,67.9586117 159.537679,66.2860302 160.48,64.69 C160.95,63.88 161.48,63.09 161.96,62.32 C162.44,61.55 162.96,60.81 163.67,59.97 L168.48,65.21 Z" id="Path" fill="#834F1F"></path>
            <path d="M18.88,124.63 C20.52,125.92 22.07,127.2 23.64,128.54 C24.42,129.22 25.2,129.9 25.98,130.63 C26.37,131 26.76,131.37 27.17,131.79 L27.48,132.11 C27.61,132.25 27.76,132.39 27.88,132.53 C28.1155356,132.799456 28.3295279,133.087008 28.52,133.39 C29.2017483,134.489728 29.6478226,135.718987 29.83,137 C30.0322054,138.216201 29.946583,139.462864 29.58,140.64 C29.2170453,141.805462 28.4786748,142.818084 27.48,143.52 C26.5794986,144.110523 25.5509506,144.477372 24.48,144.59 L24.34,144.12 C25.1597876,143.719275 25.8701064,143.125627 26.41,142.39 C26.8500548,141.744607 27.0580639,140.96898 27,140.19 C26.8461635,138.713071 26.0763791,137.36958 24.88,136.49 C24.7664383,136.409215 24.6418232,136.345223 24.51,136.3 C24.4616016,136.278866 24.411399,136.262132 24.36,136.25 L24.08,136.14 C23.7,135.99 23.27,135.83 22.83,135.68 C21.96,135.38 21.06,135.08 20.14,134.8 C18.31,134.24 16.42,133.69 14.59,133.21 L18.88,124.63 Z" id="Path" fill="#5C3A1C"></path>
            <path d="M96.92,64.27 C96.7,65.11 96.49,65.71 96.26,66.41 C96.03,67.11 95.79,67.75 95.53,68.41 C95.01,69.73 94.46,71.03 93.81,72.32 C93.1607195,73.6416065 92.4118946,74.9119344 91.57,76.12 C90.6623443,77.4458046 89.5443022,78.6145133 88.26,79.58 C87.5425086,80.1167341 86.7418965,80.5322416 85.89,80.81 C85.0127815,81.0920731 84.0855532,81.1841141 83.17,81.08 C82.95,81.08 82.73,81.02 82.52,80.98 L82,80.84 C81.65,80.75 81.31,80.64 81,80.52 C80.3036621,80.2866353 79.6334089,79.9816701 79,79.61 C78.3172625,79.2225541 77.716161,78.706354 77.23,78.09 C76.6998916,77.4418606 76.4386093,76.6150633 76.5,75.78 C76.5806965,75.0132125 76.9707584,74.3125459 77.58,73.84 C78.1120453,73.4146625 78.7690186,73.1757631 79.45,73.16 C78.8632671,73.3550197 78.3548724,73.7336861 78,74.24 C77.6819025,74.6742613 77.5687268,75.2255367 77.69,75.75 C78.0748641,76.6751251 78.9502806,77.302636 79.95,77.37 C80.4938077,77.4746666 81.0462141,77.5282333 81.6,77.53 L82.46,77.53 L82.89,77.53 C82.991072,77.515794 83.0912389,77.4957606 83.19,77.47 C83.9288469,77.2112114 84.5453306,76.6873784 84.92,76 C85.9407982,74.1483993 86.5672742,72.1055429 86.76,70 C86.9223881,68.8497682 87.0192112,67.69123 87.05,66.53 C87.05,65.94 87.05,65.35 87.05,64.77 C87.0615159,64.2228374 87.0448271,63.6754448 87,63.13 L96.92,64.27 Z" id="Path" fill="#834F1F"></path>
            <path d="M40.31,102.78 L82.21,103.4 C84.134396,103.375299 85.9775619,104.174435 87.2749129,105.59598 C88.5722638,107.017525 89.2000381,108.92587 89,110.84 L88.18,117 C87.1359261,124.123431 80.9685995,129.366301 73.77,129.25 L41,129.25 C38.9084246,129.283242 37.123909,127.743829 36.85,125.67 L34.85,108.45 C34.7111709,106.945012 35.2339965,105.454088 36.2823508,104.365412 C37.3307052,103.276736 38.8008465,102.698041 40.31,102.78 L40.31,102.78 Z" id="Path" fill="#F2F2F2"></path>
            <path d="M152,101.53 L107.35,102.22 C105.263241,102.252859 103.288546,103.1701 101.917344,104.743455 C100.546141,106.316809 99.907371,108.398329 100.16,110.47 L100.99,117.3 C101.939745,125.062357 108.529757,130.897264 116.35,130.9 L151.23,130.9 C153.512458,130.900954 155.423811,129.171223 155.65,126.9 L157.73,107.79 C157.89572,106.177139 157.364283,104.570335 156.26956,103.374356 C155.174838,102.178377 153.621193,101.507236 152,101.53 L152,101.53 Z M156,108.44 L154,125.66 C153.726091,127.733829 151.941575,129.273242 149.85,129.24 L117.07,129.24 C109.874692,129.356984 103.708608,124.11945 102.66,117 L101.88,110.85 C101.680807,108.942868 102.303358,107.041171 103.591787,105.621037 C104.880216,104.200902 106.712539,103.396781 108.63,103.41 L150.53,102.79 C152.021755,102.732628 153.466216,103.319159 154.495677,104.400284 C155.525139,105.48141 156.040292,106.952839 155.91,108.44 L156,108.44 Z" id="Shape" fill="#B3B3B3"></path>
            <path d="M150.53,102.78 L108.63,103.4 C106.712539,103.386781 104.880216,104.190902 103.591787,105.611037 C102.303358,107.031171 101.680807,108.932868 101.88,110.84 L102.66,116.99 C103.704074,124.113431 109.871401,129.356301 117.07,129.24 L149.81,129.24 C151.901575,129.273242 153.686091,127.733829 153.96,125.66 L155.91,108.44 C156.043344,106.95119 155.529555,105.476997 154.499731,104.393577 C153.469908,103.310157 152.023656,102.722299 150.53,102.78 L150.53,102.78 Z" id="Path" fill="#F2F2F2"></path>
            <path d="M42.26,168 C42.5222491,168.001471 42.7827698,167.957487 43.03,167.87 C43.2754409,167.794121 43.5056166,167.675648 43.71,167.52 C43.8999809,167.371948 44.0595715,167.188588 44.18,166.98 C44.2983454,166.779701 44.3637334,166.552564 44.37,166.32 L45.76,166.32 C45.7588767,166.706723 45.6553686,167.086253 45.46,167.42 C45.2631892,167.769297 45.0019036,168.078089 44.69,168.33 C44.3510167,168.595944 43.9733052,168.808406 43.57,168.96 C43.1516858,169.119443 42.7076696,169.200789 42.26,169.2 C41.6678248,169.212117 41.0803491,169.092572 40.54,168.85 C40.0642228,168.61124 39.6474971,168.269662 39.32,167.85 C38.9859733,167.446216 38.7345438,166.980731 38.58,166.48 C38.4177657,165.948562 38.3368504,165.395641 38.34,164.84 L38.34,164.51 C38.3377044,163.957698 38.418612,163.408201 38.58,162.88 C38.7350173,162.376438 38.9863345,161.907765 39.32,161.5 C39.6506395,161.098739 40.067697,160.7774 40.54,160.56 C41.0788481,160.312796 41.6673964,160.193034 42.26,160.21 C42.737388,160.204078 43.2118421,160.285413 43.66,160.45 C44.0686607,160.597291 44.4454156,160.821308 44.77,161.11 C45.0778953,161.391039 45.3261472,161.73111 45.5,162.11 C45.6725654,162.497035 45.7611775,162.916239 45.76,163.34 L44.37,163.34 C44.364818,163.084268 44.3069457,162.832354 44.2,162.6 C44.0892241,162.370461 43.9366157,162.163592 43.75,161.99 C43.5589174,161.811503 43.3346868,161.672208 43.09,161.58 C42.4354006,161.341864 41.7114294,161.385303 41.09,161.7 C40.7872192,161.878158 40.5303627,162.12474 40.34,162.42 C40.1422978,162.724917 40.0032498,163.064058 39.93,163.42 C39.8505844,163.784671 39.8103561,164.156782 39.81,164.53 L39.81,164.86 C39.8097955,165.236552 39.8500261,165.612038 39.93,165.98 C40.0062515,166.335019 40.1450832,166.673633 40.34,166.98 C40.5331096,167.272985 40.7893804,167.519005 41.09,167.7 C41.4455602,167.904295 41.8500054,168.007999 42.26,168 L42.26,168 Z" id="Path" fill="#DEDEDE"></path>
            <polygon id="Path" fill="#DEDEDE" points="48.61 156.78 53 156.78 53 167.78 55.82 167.78 55.82 169 48.61 169 48.61 167.72 51.54 167.72 51.54 158.04 48.61 158.04"></polygon>
            <path d="M59.17,160.39 L63.52,160.39 L63.52,169.07 C63.5263744,169.569435 63.4486211,170.06638 63.29,170.54 C63.1523889,170.941348 62.9269037,171.306907 62.63,171.61 C62.329185,171.904872 61.9673481,172.130166 61.57,172.27 C61.110249,172.428898 60.6263892,172.506722 60.14,172.5 C59.84,172.5 59.56,172.5 59.3,172.5 C59.0179573,172.481117 58.7373949,172.444376 58.46,172.39 L58.57,171.18 L58.91,171.18 L59.33,171.18 L60,171.18 C60.2639126,171.180678 60.5265677,171.143637 60.78,171.07 C61.0198643,171.004877 61.2397871,170.88117 61.42,170.71 C61.6114823,170.517623 61.7582868,170.285467 61.85,170.03 C61.9562216,169.707555 62.0069419,169.369419 62,169.03 L62,161.64 L59.17,161.64 L59.17,160.39 Z M61.83,158.12 C61.8277735,157.896857 61.9058569,157.680354 62.05,157.51 C62.222623,157.333805 62.4639648,157.242387 62.71,157.26 C63.0375407,157.224526 63.3565616,157.37929 63.5314414,157.6585 C63.7063213,157.93771 63.7063213,158.29229 63.5314414,158.5715 C63.3565616,158.85071 63.0375407,159.005474 62.71,158.97 C62.4653255,158.9916 62.2236501,158.903718 62.05,158.73 C61.9058569,158.559646 61.8277735,158.343143 61.83,158.12 L61.83,158.12 Z" id="Shape" fill="#DEDEDE"></path>
            <path d="M75.07,162.8 L68,162.8 L68,161.52 L75.11,161.52 L75.07,162.8 Z M75.07,166.11 L68,166.11 L68,164.83 L75.11,164.83 L75.07,166.11 Z" id="Shape" fill="#DEDEDE"></path>
            <polygon id="Path" fill="#DEDEDE" points="77.79 161.77 77.79 160.25 84.79 163.25 84.79 164.42 77.79 167.42 77.79 165.89 82.94 164 83.42 163.87 82.94 163.72"></polygon>
        </g>
    </g>
</svg>