<svg width="500" height="500" viewBox="0 0 500 500" fill="none" xmlns="http://www.w3.org/2000/svg">
<rect x="250" width="250" height="500" fill="black" fill-opacity="0.65"/>
<path d="M123.922 107.141V169.25H205.562V197.18H123.922V315.93C123.922 332.076 126.982 343.339 133.102 349.719C139.221 356.099 149.898 359.289 165.133 359.289H205.562V388H161.617C134.664 388 115.654 382.596 104.586 371.789C93.5182 360.982 87.9844 342.362 87.9844 315.93V197.18H29.5859V169.25H87.9844V107.141H123.922Z" fill="black" fill-opacity="0.65"/>
<path d="M452.633 84.0938V113.977H411.812C398.922 113.977 389.938 116.646 384.859 121.984C379.911 127.193 377.438 136.503 377.438 149.914V169.25H452.633V197.18H377.438V388H341.5V197.18H283.102V169.25H341.5V154.016C341.5 130.057 346.969 112.414 357.906 101.086C368.974 89.7578 386.161 84.0938 409.469 84.0938H452.633Z" fill="white" fill-opacity="0.65"/>
</svg>
