<svg width="500" height="500" viewBox="0 0 500 500" fill="none" xmlns="http://www.w3.org/2000/svg">
<g clip-path="url(#clip0_2319_76)">
<rect x="246" y="8" width="250" height="500" fill="white" fill-opacity="0.65"/>
<path d="M119.922 115.141V177.25H201.562V205.18H119.922V323.93C119.922 340.076 122.982 351.339 129.102 357.719C135.221 364.099 145.898 367.289 161.133 367.289H201.562V396H157.617C130.664 396 111.654 390.596 100.586 379.789C89.5182 368.982 83.9844 350.362 83.9844 323.93V205.18H25.5859V177.25H83.9844V115.141H119.922Z" fill="white" fill-opacity="0.65"/>
<path d="M448.633 92.0938V121.977H407.812C394.922 121.977 385.938 124.646 380.859 129.984C375.911 135.193 373.438 144.503 373.438 157.914V177.25H448.633V205.18H373.438V396H337.5V205.18H279.102V177.25H337.5V162.016C337.5 138.057 342.969 120.414 353.906 109.086C364.974 97.7578 382.161 92.0938 405.469 92.0938H448.633Z" fill="black" fill-opacity="0.65"/>
</g>
<defs>
<clipPath id="clip0_2319_76">
<rect width="500" height="500" fill="white"/>
</clipPath>
</defs>
</svg>
