<svg width="500" height="500" viewBox="0 0 500 500" fill="none" xmlns="http://www.w3.org/2000/svg">
<path d="M175.992 64.9531C158.674 94.6406 145.719 124.263 137.125 153.82C128.661 183.247 124.43 212.935 124.43 242.883C124.43 272.701 128.661 302.388 137.125 331.945C145.719 361.503 158.674 391.255 175.992 421.203H144.742C125.081 390.214 110.432 360.07 100.797 330.773C91.1615 301.346 86.3438 272.049 86.3438 242.883C86.3438 213.846 91.1615 184.615 100.797 155.188C110.432 125.76 125.081 95.6823 144.742 64.9531H175.992ZM317.984 64.9531H349.234C368.896 95.6823 383.544 125.76 393.18 155.188C402.815 184.615 407.633 213.846 407.633 242.883C407.633 272.18 402.815 301.542 393.18 330.969C383.544 360.396 368.896 390.474 349.234 421.203H317.984C335.302 390.995 348.193 361.112 356.656 331.555C365.25 301.997 369.547 272.44 369.547 242.883C369.547 213.195 365.25 183.573 356.656 154.016C348.193 124.458 335.302 94.7708 317.984 64.9531Z" fill="white" fill-opacity="0.65"/>
</svg>
