<svg width="500" height="500" viewBox="0 0 500 500" fill="none" xmlns="http://www.w3.org/2000/svg">
<path d="M210.562 397.961V426.086H198.062C165.641 426.086 143.896 421.268 132.828 411.633C121.891 401.997 116.422 382.792 116.422 354.016V314.953C116.422 300.76 112.385 288.521 104.312 278.234C96.3698 267.948 84 262.805 67.2031 262.805H43.375V234.875H67.2031C85.5625 234.875 98.3229 230.513 105.484 221.789C112.776 213.065 116.422 200.24 116.422 183.312V132.531C116.422 103.755 121.891 84.6146 132.828 75.1094C143.896 65.474 165.641 60.6562 198.062 60.6562H210.562V88.5859H196.891C178.661 88.5859 166.747 91.4505 161.148 97.1797C155.68 102.779 152.945 114.823 152.945 133.312V185.656C152.945 208.573 148.453 224.003 139.469 231.945C130.484 239.758 112.971 245.422 86.9297 248.938C112.19 251.932 129.508 257.727 138.883 266.32C148.258 274.784 152.945 290.148 152.945 312.414V353.234C152.945 371.854 155.68 383.964 161.148 389.562C166.747 395.161 178.661 397.961 196.891 397.961H210.562ZM306.461 397.961C324.69 397.961 336.539 395.161 342.008 389.562C347.607 383.964 350.406 371.854 350.406 353.234V312.414C350.406 290.148 355.094 274.784 364.469 266.32C373.844 257.727 391.161 251.932 416.422 248.938C390.38 245.422 372.867 239.758 363.883 231.945C354.898 224.003 350.406 208.573 350.406 185.656V133.312C350.406 114.823 347.607 102.779 342.008 97.1797C336.539 91.4505 324.69 88.5859 306.461 88.5859H292.789V60.6562H305.289C337.711 60.6562 359.391 65.474 370.328 75.1094C381.396 84.6146 386.93 103.755 386.93 132.531V183.312C386.93 200.24 390.51 213.065 397.672 221.789C404.964 230.513 417.789 234.875 436.148 234.875H459.977V262.805H436.148C419.352 262.805 406.917 267.948 398.844 278.234C390.901 288.521 386.93 300.76 386.93 314.953V354.016C386.93 382.792 381.396 401.997 370.328 411.633C359.391 421.268 337.711 426.086 305.289 426.086H292.789V397.961H306.461Z" fill="white" fill-opacity="0.65"/>
</svg>
