<svg width="500" height="500" viewBox="0 0 500 500" fill="none" xmlns="http://www.w3.org/2000/svg">
<path d="M64.6406 313.195H101.438V181.008L57.375 202.219V179.484L101.203 158.625H124.875V313.195H161.203V333H64.6406V313.195ZM221.32 313.078H301.711V333H195.422V313.078C210.031 297.688 222.805 284.094 233.742 272.297C244.68 260.5 252.219 252.18 256.359 247.336C264.172 237.805 269.445 230.109 272.18 224.25C274.914 218.312 276.281 212.258 276.281 206.086C276.281 196.32 273.391 188.664 267.609 183.117C261.906 177.57 254.055 174.797 244.055 174.797C236.945 174.797 229.484 176.086 221.672 178.664C213.859 181.242 205.578 185.148 196.828 190.383V166.477C204.875 162.648 212.766 159.758 220.5 157.805C228.312 155.852 236.008 154.875 243.586 154.875C260.695 154.875 274.445 159.445 284.836 168.586C295.305 177.648 300.539 189.562 300.539 204.328C300.539 211.828 298.781 219.328 295.266 226.828C291.828 234.328 286.203 242.609 278.391 251.672C274.016 256.75 267.648 263.781 259.289 272.766C251.008 281.75 238.352 295.188 221.32 313.078ZM413.156 239.367C424.641 242.414 433.43 247.844 439.523 255.656C445.617 263.391 448.664 273.078 448.664 284.719C448.664 300.812 443.234 313.469 432.375 322.688C421.594 331.828 406.633 336.398 387.492 336.398C379.445 336.398 371.242 335.656 362.883 334.172C354.523 332.688 346.32 330.539 338.273 327.727V304.172C346.242 308.312 354.094 311.398 361.828 313.43C369.562 315.461 377.258 316.477 384.914 316.477C397.883 316.477 407.844 313.547 414.797 307.688C421.75 301.828 425.227 293.391 425.227 282.375C425.227 272.219 421.75 264.172 414.797 258.234C407.844 252.219 398.43 249.211 386.555 249.211H368.508V229.758H386.555C397.414 229.758 405.891 227.375 411.984 222.609C418.078 217.844 421.125 211.203 421.125 202.688C421.125 193.703 418.273 186.828 412.57 182.062C406.945 177.219 398.898 174.797 388.43 174.797C381.477 174.797 374.289 175.578 366.867 177.141C359.445 178.703 351.672 181.047 343.547 184.172V162.375C353 159.875 361.398 158 368.742 156.75C376.164 155.5 382.727 154.875 388.43 154.875C405.461 154.875 419.055 159.172 429.211 167.766C439.445 176.281 444.562 187.609 444.562 201.75C444.562 211.359 441.867 219.367 436.477 225.773C431.164 232.18 423.391 236.711 413.156 239.367Z" fill="black" fill-opacity="0.65"/>
</svg>
