<svg width="500" height="500" viewBox="0 0 500 500" fill="none" xmlns="http://www.w3.org/2000/svg">
<g clip-path="url(#clip0_2319_44)">
<path d="M151.594 118.867L134.016 188.008H181.867L199.641 118.867H230.891L213.117 188.008H260.773V217.891H205.891L186.75 294.648H235.578V324.531H179.133L158.82 405H127.57L148.078 324.531H100.031L79.5234 405H48.4688L68.7812 324.531H18.3906V294.648H76.3984L95.5391 217.891H43.5859V188.008H102.766L120.344 118.867H151.594ZM174.641 217.891H126.789L107.648 294.648H155.695L174.641 217.891ZM409.016 101.094H458.234V141.328L419.758 216.133H389.875L409.016 141.328V101.094ZM319.367 101.094H368.586V141.328L330.305 216.133H300.227L319.367 141.328V101.094Z" fill="white" fill-opacity="0.65"/>
</g>
<defs>
<clipPath id="clip0_2319_44">
<rect width="500" height="500" fill="white"/>
</clipPath>
</defs>
</svg>
