<svg width="500" height="500" viewBox="0 0 500 500" fill="none" xmlns="http://www.w3.org/2000/svg">
<path d="M107.544 157.167L96.5576 200.38H126.465L137.573 157.167H157.104L145.996 200.38H175.781V219.057H141.479L129.517 267.03H160.034V285.707H124.756L112.061 336H92.5293L105.347 285.707H75.3174L62.5 336H43.0908L55.7861 285.707H24.292V267.03H60.5469L72.5098 219.057H40.0391V200.38H77.0264L88.0127 157.167H107.544ZM121.948 219.057H92.041L80.0781 267.03H110.107L121.948 219.057ZM300.659 342.226V359.804H292.847C272.583 359.804 258.993 356.793 252.075 350.771C245.239 344.748 241.821 332.745 241.821 314.76V290.346C241.821 281.475 239.299 273.826 234.253 267.396C229.289 260.967 221.558 257.753 211.06 257.753H196.167V240.297H211.06C222.534 240.297 230.509 237.571 234.985 232.118C239.543 226.666 241.821 218.65 241.821 208.07V176.332C241.821 158.347 245.239 146.384 252.075 140.443C258.993 134.421 272.583 131.41 292.847 131.41H300.659V148.866H292.114C280.721 148.866 273.275 150.657 269.775 154.237C266.357 157.737 264.648 165.264 264.648 176.82V209.535C264.648 223.858 261.841 233.502 256.226 238.466C250.61 243.349 239.665 246.889 223.389 249.086C239.176 250.958 250 254.579 255.859 259.95C261.719 265.24 264.648 274.843 264.648 288.759V314.271C264.648 325.909 266.357 333.477 269.775 336.977C273.275 340.476 280.721 342.226 292.114 342.226H300.659ZM360.596 342.226C371.989 342.226 379.395 340.476 382.812 336.977C386.312 333.477 388.062 325.909 388.062 314.271V288.759C388.062 274.843 390.991 265.24 396.851 259.95C402.71 254.579 413.534 250.958 429.321 249.086C413.045 246.889 402.1 243.349 396.484 238.466C390.869 233.502 388.062 223.858 388.062 209.535V176.82C388.062 165.264 386.312 157.737 382.812 154.237C379.395 150.657 371.989 148.866 360.596 148.866H352.051V131.41H359.863C380.127 131.41 393.677 134.421 400.513 140.443C407.43 146.384 410.889 158.347 410.889 176.332V208.07C410.889 218.65 413.127 226.666 417.603 232.118C422.16 237.571 430.176 240.297 441.65 240.297H456.543V257.753H441.65C431.152 257.753 423.381 260.967 418.335 267.396C413.371 273.826 410.889 281.475 410.889 290.346V314.76C410.889 332.745 407.43 344.748 400.513 350.771C393.677 356.793 380.127 359.804 359.863 359.804H352.051V342.226H360.596Z" fill="black" fill-opacity="0.65"/>
</svg>
