<svg width="500" height="500" viewBox="0 0 500 500" fill="none" xmlns="http://www.w3.org/2000/svg">
<path d="M148.594 101.867L131.016 171.008H178.867L196.641 101.867H227.891L210.117 171.008H257.773V200.891H202.891L183.75 277.648H232.578V307.531H176.133L155.82 388H124.57L145.078 307.531H97.0312L76.5234 388H45.4688L65.7812 307.531H15.3906V277.648H73.3984L92.5391 200.891H40.5859V171.008H99.7656L117.344 101.867H148.594ZM171.641 200.891H123.789L104.648 277.648H152.695L171.641 200.891ZM457.578 397.961V426.086H445.078C412.656 426.086 390.911 421.268 379.844 411.633C368.906 401.997 363.438 382.792 363.438 354.016V314.953C363.438 300.76 359.401 288.521 351.328 278.234C343.385 267.948 331.016 262.805 314.219 262.805H290.391V234.875H314.219C332.578 234.875 345.339 230.513 352.5 221.789C359.792 213.065 363.438 200.24 363.438 183.312V132.531C363.438 103.755 368.906 84.6146 379.844 75.1094C390.911 65.474 412.656 60.6562 445.078 60.6562H457.578V88.5859H443.906C425.677 88.5859 413.763 91.4505 408.164 97.1797C402.695 102.779 399.961 114.823 399.961 133.312V185.656C399.961 208.573 395.469 224.003 386.484 231.945C377.5 239.758 359.987 245.422 333.945 248.938C359.206 251.932 376.523 257.727 385.898 266.32C395.273 274.784 399.961 290.148 399.961 312.414V353.234C399.961 371.854 402.695 383.964 408.164 389.562C413.763 395.161 425.677 397.961 443.906 397.961H457.578Z" fill="white" fill-opacity="0.75"/>
</svg>
