<svg width="500" height="500" viewBox="0 0 500 500" fill="none" xmlns="http://www.w3.org/2000/svg">
<path d="M115.266 267.023H108.117C95.5391 267.023 86.0469 269.25 79.6406 273.703C73.3125 278.078 70.1484 284.641 70.1484 293.391C70.1484 301.281 72.5312 307.414 77.2969 311.789C82.0625 316.164 88.6641 318.352 97.1016 318.352C108.977 318.352 118.312 314.25 125.109 306.047C131.906 297.766 135.344 286.359 135.422 271.828V267.023H115.266ZM157.102 258.117V333H135.422V313.547C130.812 321.359 124.992 327.141 117.961 330.891C111.008 334.562 102.531 336.398 92.5312 336.398C79.1719 336.398 68.5078 332.648 60.5391 325.148C52.5703 317.57 48.5859 307.453 48.5859 294.797C48.5859 280.188 53.4688 269.094 63.2344 261.516C73.0781 253.938 87.4922 250.148 106.477 250.148H135.422V246.75C135.344 236.281 132.688 228.703 127.453 224.016C122.219 219.25 113.859 216.867 102.375 216.867C95.0312 216.867 87.6094 217.922 80.1094 220.031C72.6094 222.141 65.3047 225.227 58.1953 229.289V207.727C66.1641 204.68 73.7812 202.414 81.0469 200.93C88.3906 199.367 95.5 198.586 102.375 198.586C113.234 198.586 122.492 200.188 130.148 203.391C137.883 206.594 144.133 211.398 148.898 217.805C151.867 221.711 153.977 226.555 155.227 232.336C156.477 238.039 157.102 246.633 157.102 258.117ZM285.188 267.492C285.188 250.773 282.531 238.156 277.219 229.641C271.906 221.125 264.055 216.867 253.664 216.867C243.195 216.867 235.266 221.164 229.875 229.758C224.484 238.273 221.789 250.852 221.789 267.492C221.789 284.055 224.484 296.633 229.875 305.227C235.266 313.82 243.195 318.117 253.664 318.117C264.055 318.117 271.906 313.859 277.219 305.344C282.531 296.828 285.188 284.211 285.188 267.492ZM221.789 218.508C225.227 212.102 229.953 207.18 235.969 203.742C242.062 200.305 249.094 198.586 257.062 198.586C272.844 198.586 285.266 204.68 294.328 216.867C303.391 228.977 307.922 245.695 307.922 267.023C307.922 288.664 303.352 305.656 294.211 318C285.148 330.266 272.688 336.398 256.828 336.398C249.016 336.398 242.102 334.719 236.086 331.359C230.148 327.922 225.383 322.961 221.789 316.477V333H200.227V150.656H221.789V218.508ZM446.555 326.32C440.773 329.68 434.797 332.18 428.625 333.82C422.531 335.539 416.281 336.398 409.875 336.398C389.562 336.398 373.664 330.305 362.18 318.117C350.773 305.93 345.07 289.055 345.07 267.492C345.07 245.93 350.773 229.055 362.18 216.867C373.664 204.68 389.562 198.586 409.875 198.586C416.203 198.586 422.375 199.406 428.391 201.047C434.406 202.688 440.461 205.227 446.555 208.664V231.281C440.852 226.203 435.109 222.531 429.328 220.266C423.625 218 417.141 216.867 409.875 216.867C396.359 216.867 385.969 221.242 378.703 229.992C371.438 238.742 367.805 251.242 367.805 267.492C367.805 283.664 371.438 296.164 378.703 304.992C386.047 313.742 396.438 318.117 409.875 318.117C417.375 318.117 424.094 316.984 430.031 314.719C435.969 312.375 441.477 308.781 446.555 303.938V326.32Z" fill="black" fill-opacity="0.65"/>
</svg>
