<svg width="500" height="500" viewBox="0 0 500 500" fill="none" xmlns="http://www.w3.org/2000/svg">
<g clip-path="url(#clip0_2319_72)">
<path d="M153.32 117.48L137.5 179.707H180.566L196.562 117.48H224.688L208.691 179.707H251.582V206.602H202.188L184.961 275.684H228.906V302.578H178.105L159.824 375H131.699L150.156 302.578H106.914L88.457 375H60.5078L78.7891 302.578H33.4375V275.684H85.6445L102.871 206.602H56.1133V179.707H109.375L125.195 117.48H153.32ZM174.062 206.602H130.996L113.77 275.684H157.012L174.062 206.602ZM453.027 218.73C446.113 213.34 439.082 209.414 431.934 206.953C424.785 204.492 416.934 203.262 408.379 203.262C388.223 203.262 372.812 209.59 362.148 222.246C351.484 234.902 346.152 253.184 346.152 277.09V375H313.633V178.125H346.152V216.621C351.543 202.676 359.805 192.012 370.938 184.629C382.188 177.129 395.488 173.379 410.84 173.379C418.809 173.379 426.25 174.375 433.164 176.367C440.078 178.359 446.699 181.465 453.027 185.684V218.73Z" fill="white" fill-opacity="0.65"/>
</g>
<defs>
<clipPath id="clip0_2319_72">
<rect width="500" height="500" fill="white"/>
</clipPath>
</defs>
</svg>
