<?xml version="1.0" encoding="UTF-8" standalone="no"?>
<svg
   xmlns:dc="http://purl.org/dc/elements/1.1/"
   xmlns:cc="http://creativecommons.org/ns#"
   xmlns:rdf="http://www.w3.org/1999/02/22-rdf-syntax-ns#"
   xmlns:svg="http://www.w3.org/2000/svg"
   xmlns="http://www.w3.org/2000/svg"
   xmlns:sodipodi="http://sodipodi.sourceforge.net/DTD/sodipodi-0.dtd"
   xmlns:inkscape="http://www.inkscape.org/namespaces/inkscape"
   inkscape:version="1.1-dev (ddb55ca, 2020-02-02)"
   sodipodi:docname="calva-symbol-logo-white.svg"
   id="svg26"
   version="1.1"
   viewBox="0 0 4609 1191"
   height="1191px"
   width="4609px">
  <metadata
     id="metadata32">
    <rdf:RDF>
      <cc:Work
         rdf:about="">
        <dc:format>image/svg+xml</dc:format>
        <dc:type
           rdf:resource="http://purl.org/dc/dcmitype/StillImage" />
        <dc:title>calva-symbol-logo</dc:title>
      </cc:Work>
    </rdf:RDF>
  </metadata>
  <defs
     id="defs30" />
  <sodipodi:namedview
     inkscape:current-layer="layer2"
     inkscape:window-maximized="0"
     inkscape:window-y="23"
     inkscape:window-x="0"
     inkscape:cy="612.32117"
     inkscape:cx="1919.7158"
     inkscape:zoom="0.23779562"
     showgrid="false"
     id="namedview28"
     inkscape:window-height="1235"
     inkscape:window-width="2006"
     inkscape:pageshadow="2"
     inkscape:pageopacity="0"
     guidetolerance="10"
     gridtolerance="10"
     objecttolerance="10"
     borderopacity="1"
     bordercolor="#666666"
     pagecolor="#ffffff" />
  <!-- Generator: Sketch 53.2 (72643) - https://sketchapp.com -->
  <title
     id="title10">calva-symbol-logo</title>
  <desc
     id="desc12">Created with Sketch.</desc>
  <g
     fill-rule="evenodd"
     fill="none"
     stroke-width="1"
     stroke="none"
     id="Calva-logo">
    <g
       inkscape:label="Calva"
       id="layer2"
       inkscape:groupmode="layer">
      <path
         style="fill:#fffaf4;fill-opacity:1"
         inkscape:connector-curvature="0"
         d="m 2558.8317,937.06431 c -145.4093,148.84849 -242.2276,215.87109 -369.9816,226.18409 -160.7484,12.9926 -322.0593,-102.4675 -379.8978,-263.01222 -52.6782,-146.22107 -26.5008,-320.40659 61.967,-466.96812 75.251,-124.66576 190.6279,-229.7043 343.663,-324.33131 82.1274,-50.68703 174.7056,-74.721554 247.8485,-62.007388 85.655,14.889109 137.1239,77.598298 137.1239,178.992458 0,12.91055 -10.4639,23.37662 -23.3717,23.37662 -12.9078,0 -23.3716,-10.46607 -23.3716,-23.37662 0,-78.89455 -35.3576,-121.97396 -98.3841,-132.929644 -60.6983,-10.550955 -142.1723,10.600794 -215.2825,55.722564 -147.2236,91.0336 -257.3034,191.24973 -328.2099,308.71798 -81.5832,135.15604 -105.5877,294.883 -58.0073,426.95395 50.982,141.51293 193.432,243.47293 332.1599,232.26023 112.8707,-9.1116 202.413,-71.0973 340.3112,-212.25708 5.2331,-5.35691 10.6686,-10.94782 17.213,-17.69991 3.7494,-3.86839 16.5919,-17.13572 17.0958,-17.65608 153.6876,-158.69317 282.2465,-235.75689 426.3691,-217.63067 12.9531,1.6291 19.6495,11.18945 20.3887,21.22851 0.542,3.51161 0.2494,7.38723 -1.1289,11.52941 -14.8805,44.71994 -31.9254,88.64111 -51.0581,131.60686 -7.2632,26.15909 -10.8004,49.29286 -11.8026,74.51091 -2.8854,72.60628 28.7585,140.81625 81.8226,167.66745 58.1388,30.1385 140.0327,9.6204 196.9119,-45.3092 34.5745,-33.38937 57.9522,-69.22889 86.4972,-131.46307 -29.8652,-130.20006 -31.372,-312.17865 -7.2244,-483.92327 27.6223,-196.4573 79.1675,-328.731551 149.0195,-328.731551 74.7935,0 84.1022,114.157791 54.3475,303.417081 -23.9879,152.57816 -73.5266,336.53213 -122.4722,456.15795 -8.7063,21.22341 -16.7691,40.32342 -24.4564,57.6772 1.8717,7.29007 3.844,14.37275 5.9175,21.23365 13.0658,43.99137 27.3818,70.00984 49.3883,83.95044 47.1861,29.63487 123.0639,-16.1813 147.159,-85.86894 10.2656,-29.68977 14.1659,-55.25861 19.5983,-114.51343 0.1025,-1.11797 0.1025,-1.11797 0.2051,-2.23718 5.2243,-56.93681 9.2446,-84.15861 19.416,-116.40804 7.3228,-23.21786 40.8241,-21.17139 45.2677,2.76524 22.2999,120.12545 75.8873,232.00556 155.0606,324.47924 38.815,-99.64419 66.8305,-203.20399 83.5421,-308.90203 3.8598,-24.41221 38.0179,-26.9138 45.3916,-3.32427 10.604,33.92401 189.3073,32.16672 291.9954,1.59326 12.8995,-5.99986 26.3644,-11.13005 40.3364,-15.30274 1.2257,-0.36605 2.427,-0.63826 3.6015,-0.82315 13.1264,-13.48128 40.7852,-6.12744 40.1598,17.30114 -1.2472,46.71776 -5.1153,93.2872 -11.5706,139.4841 2.9589,55.08536 16.5178,104.07626 41.8934,145.0989 49.9653,80.77527 161.0126,117.10067 231.4264,71.80667 10.8564,-6.9834 25.3174,-3.8418 32.2993,7.017 6.982,10.8588 3.8411,25.3228 -7.0154,32.3062 -94.2109,60.6015 -233.6667,14.9832 -296.4606,-86.53088 -9.7934,-15.83229 -18.0594,-32.5343 -24.8645,-50.03306 -2.6989,11.20032 -5.5537,22.36605 -8.5638,33.49377 -19.3967,72.46087 -58.5722,123.70517 -116.6924,119.34517 -51.2853,-3.7857 -85.5248,-53.0327 -93.9696,-112.91797 -9.5662,-88.9885 21.4992,-174.31693 79.6997,-235.68186 -22.2925,2.67495 -45.1001,4.46325 -67.4065,5.18987 -60.5633,1.97283 -109.5578,-3.24475 -141.4251,-18.19931 -19.9629,106.78113 -51.1721,211.19057 -93.1302,311.47617 -6.51,15.56 -26.8509,19.3125 -38.4825,7.0994 -73.512,-77.18777 -129.184,-169.01536 -163.692,-268.97611 -0.089,0.96255 -0.179,1.93453 -0.269,2.91612 -0.1024,1.11622 -0.1024,1.11622 -0.2049,2.23365 -5.7768,63.01196 -10.0568,91.0695 -21.9701,125.52497 -32.7348,94.67517 -138.8561,158.75287 -216.2685,110.13457 -28.0761,-17.7854 -45.9041,-44.20577 -60.2332,-82.84271 -21.9891,40.87324 -43.864,70.10511 -73.3828,98.61211 -70.1809,67.7754 -173.0321,93.5443 -250.6841,53.289 -59.8691,-30.2933 -97.5521,-96.0573 -105.7523,-169.57158 -16.3968,29.49762 -33.833,58.43021 -52.2805,86.73998 -46.6025,72.2165 -99.6677,115.8044 -162.6141,113.8571 -71.3512,-2.2072 -127.6657,-73.9648 -127.6657,-149.91087 0,-15.16479 1.9058,-30.19865 5.5721,-45.0665 -0.4758,0.48751 -0.9495,0.97255 -1.4215,1.45578 z m 113.9214,-99.71706 c -45.4073,46.93091 -71.3287,95.94348 -71.3287,143.32778 0,52.57057 38.6565,101.82787 82.3673,103.17997 41.9131,1.2966 83.3385,-32.7302 121.9528,-92.56767 39.6843,-60.90032 74.5203,-124.74339 104.2208,-190.9342 8.1059,-28.37124 20.0688,-59.68644 37.03,-99.23382 -103.8477,13.06532 -200.6545,60.89989 -274.2422,136.22794 z m 1424.0694,145.66838 c 5.638,39.91997 26.7373,70.26727 51.0581,72.06257 27.9909,2.0997 53.8667,-31.7477 68.0874,-84.87207 12.7207,-47.02604 22.559,-94.74056 29.4759,-142.87707 -1.3958,-31.82867 0.3735,-65.1961 5.0608,-99.83092 -3.7766,1.30241 -7.6951,2.57537 -11.7422,3.81661 -95.0267,44.62211 -153.3638,145.32485 -141.94,251.70088 z M 3457.6742,364.67357 c 12.3346,-78.45655 17.1178,-144.18364 13.3856,-189.95293 -3.4137,-41.86517 -12.6376,-59.44818 -21.5573,-59.44818 -32.3539,0 -78.9999,119.70218 -102.7318,288.48924 -19.427,138.17069 -21.6932,283.25125 -5.6999,399.32675 46.5578,-116.27292 93.6429,-292.37165 116.6034,-438.41488 z"
         id="path20"
         fill="#db9550"
         fill-rule="nonzero" />
    </g>
    <g
       transform="translate(-2.000000, -1.000000)"
       id="calva-symbol-logo">
      <g
         id="g22"
         transform="translate(2.000000, 0.000000)">
        <g
           fill-rule="nonzero"
           transform="translate(0.181351, 0.935064)"
           id="Calva-icon" />
      </g>
    </g>
    <g
       style="display:inline"
       inkscape:label="Icon"
       id="layer1"
       inkscape:groupmode="layer">
      <path
         style="fill:#fffaf4;fill-opacity:1"
         inkscape:connector-curvature="0"
         d="m 191.8401,28.444291 c 15.16135,-15.2657 39.8247,-15.3477 55.08713,-0.1831 15.26244,15.1646 15.34437,39.8333 0.18302,55.0989 -0.59064,0.5948 -2.31766,2.4676 -5.02357,5.6419 -4.89318,5.7403 -10.45196,12.829999 -16.51976,21.292999 -17.75686,24.7662 -35.67655,55.3199 -52.51541,91.868 -48.78562,105.8875 -78.224992,238.2948 -78.224992,399.1938 0,160.8989 29.439372,293.3063 78.224992,399.19371 16.83886,36.5482 34.75855,67.1018 52.51541,91.8681 6.0678,8.463 11.62658,15.5527 16.51976,21.2929 2.70591,3.1743 4.43293,5.0472 5.02357,5.6419 15.16135,15.2657 15.07942,39.9343 -0.18302,55.0989 -15.26243,15.1646 -39.92578,15.0827 -55.08713,-0.183 -6.54288,-6.5879 -16.83691,-18.6639 -29.58209,-36.4402 C 141.6708,1109.1152 121.24642,1074.291 102.29749,1033.163 48.832258,917.11859 16.921118,773.59419 16.921118,601.35679 c 0,-172.2374 31.91114,-315.7619 85.376372,-431.8063 18.94893,-41.128 39.37331,-75.952199 59.96052,-104.666099 12.74518,-17.7762 23.03921,-29.8522 29.58209,-36.4401 z"
         id="Path"
         fill="#90b4fe" />
      <path
         style="fill:#fffaf4;fill-opacity:1"
         inkscape:connector-curvature="0"
         d="m 1308.8478,83.360091 c -15.1614,-15.2656 -15.0794,-39.9343 0.183,-55.0989 15.2624,-15.1646 39.9258,-15.0826 55.0871,0.1831 6.5429,6.5879 16.8369,18.6639 29.5821,36.4401 20.5872,28.7139 41.0116,63.538099 59.9605,104.666099 53.4653,116.0444 85.3764,259.5689 85.3764,431.8063 0,172.2374 -31.9111,315.7618 -85.3764,431.80621 -18.9489,41.128 -39.3733,75.9522 -59.9605,104.6661 -12.7452,17.7763 -23.0392,29.8523 -29.5821,36.4402 -15.1613,15.2657 -39.8247,15.3476 -55.0871,0.183 -15.2624,-15.1646 -15.3444,-39.8332 -0.183,-55.0989 0.5906,-0.5947 2.3176,-2.4676 5.0236,-5.6419 4.8931,-5.7402 10.4519,-12.8299 16.5197,-21.2929 17.7569,-24.7663 35.6766,-55.3199 52.5154,-91.8681 48.7856,-105.88741 78.225,-238.29481 78.225,-399.19371 0,-160.899 -29.4394,-293.3063 -78.225,-399.1938 -16.8388,-36.5481 -34.7585,-67.1018 -52.5154,-91.868 -6.0678,-8.463 -11.6266,-15.552699 -16.5197,-21.292999 -2.706,-3.1743 -4.433,-5.0471 -5.0236,-5.6419 z"
         id="path15"
         fill="#90b4fe" />
      <path
         style="fill:#fffaf4;fill-opacity:1"
         inkscape:connector-curvature="0"
         d="m 1225.2339,288.57749 c -38.4852,-7.1688 -70.8939,127.6364 -198.6588,7.6364 -141.63193,-132.9351 -245.71353,0 -245.71353,0 0,0 -101.1213,133.0909 -242.7533,0 -93.4865,-87.7403 -185.88229,-42.7013 -185.88229,-42.7013 -51.38814,108.7141 -77.18585,227.7608 -75.41243,348 -1.00667,99.7255 16.37082,198.7825 51.26176,292.2078 33.4024,88.3664 105.84195,156.27501 196.16576,183.89611 83.8448,23.1462 170.5913,34.064 257.5553,32.4156 82.0747,1.3674 163.9676,-8.1705 243.53233,-28.3636 97.8705,-27.2771 176.5195,-100.19541 211.1236,-195.74031 32.8544,-91.1852 49.2102,-187.4941 48.3014,-284.4156 1.2506,-107.2404 -18.9874,-213.6451 -59.5198,-312.9351 z"
         id="path17"
         fill="#db9550" />
    </g>
  </g>
</svg>
