<?xml version="1.0" encoding="UTF-8"?>
<svg width="1200px" height="1200px" viewBox="0 0 1200 1200" version="1.1" xmlns="http://www.w3.org/2000/svg" xmlns:xlink="http://www.w3.org/1999/xlink">
    <!-- Generator: Sketch 53.2 (72643) - https://sketchapp.com -->
    <title>calva-cljs</title>
    <desc>Created with Sketch.</desc>
    <g id="Calva-cljs" stroke="none" stroke-width="1" fill="none" fill-rule="evenodd">
        <g id="Calva-BG" transform="translate(0.000000, 76.000000)" stroke="#FFFFFF">
            <g transform="translate(20.000000, 20.000000)">
                <path d="M189.153256,1083.22321 C133.948796,907.99276 98.5780871,724.123481 98.0105289,541.028856 C98.0035042,538.762658 98,536.49658 98,534.230638 C98,326.307523 144.303669,173.461297 202.922497,1.67910379e-09 L956.629886,0 C1015.24871,173.461297 1061.55238,326.307523 1061.55238,534.230638 C1061.55238,719.570587 1010.52435,905.823899 954.636614,1083.22321 L204.915769,1083.22321 L189.153256,1083.22321 Z" id="Calva" stroke-width="40" fill="#91DC47"></path>
                <path d="M170.689508,1083.35432 C60.2400761,957.328876 0.213210662,704.077738 0.213210662,536.043809 C0.213210662,370.410364 50.6357776,147.165285 170.689508,0.73571792 L255.927657,3.13620263 C168.288434,193.974737 138.275001,329.602123 138.275001,536.043809 C138.275001,722.081374 176.692195,909.319181 255.927657,1080.95384 L170.689508,1083.35432 Z" id="(-)" stroke-width="40" fill="#5F7FBF"></path>
                <path d="M989.455953,1083.35432 L904.217804,1080.95384 C983.453266,909.319181 1021.87046,722.081374 1021.87046,536.043809 C1021.87046,329.602123 991.857027,193.974737 904.217804,3.13620263 L990.65649,0.73571792 C1110.71022,147.165285 1159.93225,370.410364 1159.93225,536.043809 C1159.93225,704.077738 1101.10592,957.328876 989.455953,1083.35432 Z" id="Path" stroke-width="40" fill="#5F7FBF"></path>
            </g>
        </g>
        <g id="Group-2" transform="translate(225.000000, 263.000000)">
            <circle id="Oval" fill="#FFFFFF" cx="375" cy="375" r="375"></circle>
            <g id="cljs" transform="translate(64.540059, 65.652819)" fill-rule="nonzero">
                <g id="Group" transform="translate(107.839830, 204.520738)">
                    <path d="M60.9529472,186.72275 C41.104167,186.72275 26.1003646,180.94621 15.7852504,169.39313 C5.47013629,157.84005 0.312579217,141.291044 0.312579217,119.746111 C0.312579217,97.7328106 5.6264259,80.8715589 16.4104089,69.0062337 C27.1943918,57.1409084 42.6670631,51.2082458 63.1410017,51.2082458 C76.8944873,51.2082458 89.3976559,53.706209 100.337929,58.8582582 L91.8982897,81.1838043 C80.176569,76.656246 70.4866133,74.3144055 62.8284225,74.3144055 C40.1664293,74.3144055 28.9135775,89.3021848 28.9135775,119.277743 C28.9135775,133.953277 31.7267905,144.881866 37.3532164,152.375756 C42.9796423,159.713523 51.2629915,163.460468 62.2032641,163.460468 C74.5501431,163.460468 86.2718638,160.338014 97.368426,154.249228 L97.368426,178.448247 C92.3671585,181.414578 87.0533118,183.444173 81.4268859,184.693155 C75.80046,186.098259 68.9237173,186.72275 60.9529472,186.72275 Z" id="Shape" fill="#96CA4B"></path>
                    <polygon id="Shape" fill="#96CA4B" points="174.106624 184.380909 146.287073 184.380909 146.287073 0.468368102 174.106624 0.468368102"></polygon>
                    <path d="M218.649162,242.458554 C210.365813,242.458554 203.33278,241.521818 197.862644,239.492223 L197.862644,217.478922 C203.176491,218.884026 208.646627,219.66464 214.273053,219.66464 C226.151063,219.66464 232.090068,212.951364 232.090068,199.524811 L232.090068,53.5500863 L259.909619,53.5500863 L259.909619,201.398284 C259.909619,214.824836 256.314958,225.128934 249.281925,231.998333 C242.092603,239.023855 231.933779,242.458554 218.649162,242.458554 Z M230.370883,19.0469695 C230.370883,14.0510431 231.777489,10.3040982 234.434412,7.65001233 C237.091336,4.99592642 240.998576,3.59082212 246.156133,3.59082212 C251.001111,3.59082212 254.908351,4.99592642 257.565274,7.65001233 C260.222198,10.3040982 261.628804,14.2071658 261.628804,19.0469695 C261.628804,23.7306505 260.222198,27.4775953 257.565274,30.2878039 C254.908351,32.9418898 251.001111,34.3469941 246.156133,34.3469941 C241.154866,34.3469941 237.247625,32.9418898 234.434412,30.2878039 C231.621199,27.4775953 230.370883,23.7306505 230.370883,19.0469695 Z" id="Shape" fill="#5F7FBF"></path>
                    <path d="M405.571533,147.223707 C405.571533,160.025768 400.882845,169.705376 391.661758,176.574774 C382.284382,183.444173 368.999765,186.72275 351.651619,186.72275 C334.147183,186.72275 320.237407,184.068664 309.609714,178.760492 L309.609714,154.717596 C324.926096,161.743118 339.30474,165.33394 352.589356,165.33394 C369.624924,165.33394 378.220852,160.181891 378.220852,149.877793 C378.220852,146.599216 377.283114,143.789007 375.407639,141.60329 C373.532164,139.417572 370.406372,137.075731 366.030263,134.733891 C361.654154,132.39205 355.715148,129.737964 347.900668,126.771633 C332.896866,120.995093 322.581751,115.06243 317.267905,109.28589 C311.954058,103.509351 309.297135,95.8593382 309.297135,86.6480989 C309.297135,75.4072644 313.829533,66.8205159 322.894331,60.5756079 C331.959128,54.3306998 344.149717,51.3643685 359.778678,51.3643685 C375.09506,51.3643685 389.629993,54.4868225 403.383479,60.7317306 L394.318682,81.6521725 C380.252617,75.8756325 368.374607,72.9093012 358.684651,72.9093012 C343.993428,72.9093012 336.647816,77.1246141 336.647816,85.3991173 C336.647816,89.4583075 338.523292,92.8930069 342.430532,95.8593382 C346.181482,98.6695468 354.621121,102.572614 367.436869,107.568541 C378.220852,111.783854 386.035332,115.530798 391.0366,118.965498 C395.881578,122.400197 399.476239,126.459388 401.976872,130.986946 C404.321217,135.358381 405.571533,140.822676 405.571533,147.223707 Z" id="Shape" fill="#5F7FBF"></path>
                </g>
                <path d="M286.009983,588.114213 C143.47386,575.468275 31.2579217,455.409918 31.2579217,309.747438 C31.2579217,164.084958 143.47386,44.1827243 286.009983,31.5367855 L286.009983,0.156122701 C126.125714,12.9581842 0,146.911461 0,309.903561 C0,472.89566 126.125714,606.848938 286.009983,619.650999 L286.009983,588.114213 Z" id="Shape" stroke="#96CA4B" stroke-width="6" fill="#96CA4B"></path>
                <path d="M336.022658,0.156122701 L336.022658,31.5367855 C478.558781,44.1827243 590.774719,164.241081 590.774719,309.903561 C590.774719,455.566041 478.558781,575.624397 336.022658,588.270336 L336.022658,619.650999 C495.906927,606.848938 622.032641,472.89566 622.032641,309.903561 C622.032641,146.911461 495.906927,12.9581842 336.022658,0.156122701 Z" id="Shape" stroke="#5F7FBF" stroke-width="6" fill="#5F7FBF"></path>
            </g>
        </g>
    </g>
</svg>