<?xml version="1.0" encoding="UTF-8"?>
<svg width="1200px" height="1200px" viewBox="0 0 1200 1200" version="1.1" xmlns="http://www.w3.org/2000/svg" xmlns:xlink="http://www.w3.org/1999/xlink">
    <!-- Generator: Sketch 53.2 (72643) - https://sketchapp.com -->
    <title>calva</title>
    <desc>Created with Sketch.</desc>
    <g id="Calva-2" stroke="none" stroke-width="1" fill="none" fill-rule="evenodd">
        <g id="Calva-BG" transform="translate(0.000000, 38.000000)" stroke="#FFFFFF">
            <g transform="translate(20.000000, 20.000000)">
                <path d="M189.153256,1083.22321 C133.948796,907.99276 98.5780871,724.123481 98.0105289,541.028856 C98.0035042,538.762658 98,536.49658 98,534.230638 C98,326.307523 144.303669,173.461297 202.922497,1.67910379e-09 L956.629886,0 C1015.24871,173.461297 1061.55238,326.307523 1061.55238,534.230638 C1061.55238,719.570587 1010.52435,905.823899 954.636614,1083.22321 L204.915769,1083.22321 L189.153256,1083.22321 Z" id="Calva" stroke-width="40" fill="#91DC47"></path>
                <path d="M170.689508,1083.35432 C60.2400761,957.328876 0.213210662,704.077738 0.213210662,536.043809 C0.213210662,370.410364 50.6357776,147.165285 170.689508,0.73571792 L255.927657,3.13620263 C168.288434,193.974737 138.275001,329.602123 138.275001,536.043809 C138.275001,722.081374 176.692195,909.319181 255.927657,1080.95384 L170.689508,1083.35432 Z" id="(-)" stroke-width="40" fill="#5F7FBF"></path>
                <path d="M989.455953,1083.35432 L904.217804,1080.95384 C983.453266,909.319181 1021.87046,722.081374 1021.87046,536.043809 C1021.87046,329.602123 991.857027,193.974737 904.217804,3.13620263 L990.65649,0.73571792 C1110.71022,147.165285 1159.93225,370.410364 1159.93225,536.043809 C1159.93225,704.077738 1101.10592,957.328876 989.455953,1083.35432 Z" id="Path" stroke-width="40" fill="#5F7FBF"></path>
            </g>
        </g>
    </g>
</svg>