<?xml version="1.0" encoding="UTF-8"?>
<svg width="1200px" height="1200px" viewBox="0 0 1200 1200" version="1.1" xmlns="http://www.w3.org/2000/svg" xmlns:xlink="http://www.w3.org/1999/xlink">
    <!-- Generator: Sketch 53.2 (72643) - https://sketchapp.com -->
    <title>calva-clj</title>
    <desc>Created with Sketch.</desc>
    <g id="Calva-clj" stroke="none" stroke-width="1" fill="none" fill-rule="evenodd">
        <g id="Calva-BG" transform="translate(-0.000000, 76.000000)" stroke="#FFFFFF">
            <g transform="translate(20.000000, 20.000000)">
                <path d="M189.153256,1083.22321 C133.948796,907.99276 98.5780871,724.123481 98.0105289,541.028856 C98.0035042,538.762658 98,536.49658 98,534.230638 C98,326.307523 144.303669,173.461297 202.922497,1.67910379e-09 L956.629886,0 C1015.24871,173.461297 1061.55238,326.307523 1061.55238,534.230638 C1061.55238,719.570587 1010.52435,905.823899 954.636614,1083.22321 L204.915769,1083.22321 L189.153256,1083.22321 Z" id="Calva" stroke-width="40" fill="#91DC47"></path>
                <path d="M170.689508,1083.35432 C60.2400761,957.328876 0.213210662,704.077738 0.213210662,536.043809 C0.213210662,370.410364 50.6357776,147.165285 170.689508,0.73571792 L255.927657,3.13620263 C168.288434,193.974737 138.275001,329.602123 138.275001,536.043809 C138.275001,722.081374 176.692195,909.319181 255.927657,1080.95384 L170.689508,1083.35432 Z" id="(-)" stroke-width="40" fill="#5F7FBF"></path>
                <path d="M989.455953,1083.35432 L904.217804,1080.95384 C983.453266,909.319181 1021.87046,722.081374 1021.87046,536.043809 C1021.87046,329.602123 991.857027,193.974737 904.217804,3.13620263 L990.65649,0.73571792 C1110.71022,147.165285 1159.93225,370.410364 1159.93225,536.043809 C1159.93225,704.077738 1101.10592,957.328876 989.455953,1083.35432 Z" id="Path" stroke-width="40" fill="#5F7FBF"></path>
            </g>
        </g>
        <g id="Clojure_logo" transform="translate(225.000000, 263.000000)" fill-rule="nonzero">
            <path d="M374.99707,0 C168.231445,0 0,168.22816 0,374.995606 C0,581.780629 168.231445,750 374.99707,750 C581.768555,750 750,581.780629 750,374.995606 C750,168.22816 581.768555,0 374.99707,0" id="path8" fill="#FFFFFF"></path>
            <path d="M362.599422,380.756579 C359.219432,388.076401 355.489687,396.300921 351.627682,405.054159 C337.975464,435.966603 322.856624,473.58203 317.334015,497.679873 C315.350108,506.262746 314.121555,516.898812 314.145068,528.692186 C314.145068,533.356663 314.394894,538.259064 314.791675,543.252522 C334.092885,550.340296 354.940072,554.238131 376.710143,554.276316 C396.528638,554.238131 415.568266,550.965947 433.388158,545.044293 C429.19991,541.216954 425.202705,537.137005 421.564073,532.540086 C397.404496,501.75101 383.925686,456.627771 362.599422,380.756579" id="path10" fill="#91DC47"></path>
            <path d="M272.609845,228.618421 C226.205023,260.9945 195.838965,314.392791 195.723684,374.907732 C195.838965,434.518461 225.291647,487.226155 270.528885,519.736842 C281.625369,473.979002 309.440477,432.080891 351.151316,348.097389 C348.674264,341.361151 345.85137,333.98699 342.691503,326.241195 C331.136853,297.546344 314.459612,264.222159 299.576607,249.131465 C291.988788,241.248135 282.78113,234.435815 272.609845,228.618421" id="path12" fill="#91DC47"></path>
            <path d="M529.739974,580.533667 C506.079437,577.562279 486.552192,573.976121 469.469869,567.936738 C440.738383,582.23453 408.381869,590.311436 374.120828,590.311436 C255.572776,590.311436 159.473024,494.015044 159.458419,375.171232 C159.458419,310.68772 187.804326,252.881781 232.648345,213.457463 C220.654498,210.553407 208.146545,208.858399 195.369856,208.881818 C132.386091,209.476096 65.8999838,244.409666 38.220077,338.753432 C35.6320233,352.486221 36.2483657,362.869978 36.2483657,375.177087 C36.2483657,562.198885 187.532668,713.815789 374.129591,713.815789 C488.407061,713.815789 589.358684,656.908585 650.493421,569.874727 C617.427091,578.133136 585.628498,582.082301 558.398434,582.167198 C548.192272,582.167198 538.611215,581.61976 529.739974,580.533667" id="path14" fill="#63B132"></path>
            <path d="M467.348595,512.697013 C469.423353,513.727404 474.127881,515.409794 480.6747,517.269737 C524.718262,484.882275 553.34062,432.713633 553.453947,373.751395 L553.436512,373.751395 C553.270881,275.453832 473.857639,195.918702 375.701838,195.723684 C356.192141,195.761523 337.449582,198.986589 319.901316,204.810919 C355.988734,246.014919 373.34231,304.898567 390.12925,369.309653 C390.137968,369.33876 390.152497,369.362045 390.158308,369.385331 C390.190272,369.437724 395.52827,387.27164 404.693236,410.932795 C413.794274,434.561933 426.760057,463.814561 440.899793,485.132596 C450.183898,499.418357 460.39496,509.684428 467.348595,512.697013" id="path16" fill="#90B4FE"></path>
            <path d="M376.572222,36.1842105 C263.061589,36.1842105 162.652844,92.0187351 101.151316,177.630892 C133.158947,157.601541 165.840423,150.376689 194.36164,150.634301 C233.755197,150.74847 264.725693,162.95285 279.585437,171.301828 C283.174394,173.368581 286.581705,175.593414 289.918702,177.879722 C316.433033,166.211059 345.730636,159.685858 376.563433,159.685858 C495.479474,159.700495 591.880307,255.994778 591.897886,374.815494 L591.880307,374.815494 C591.880307,434.722048 567.358213,488.887948 527.826957,527.892783 C537.530324,528.978852 547.878237,529.655084 558.445882,529.602391 C595.979042,529.619956 636.547433,521.344162 666.961274,495.78493 C686.792822,479.092828 703.407492,454.651868 712.621589,418.006527 C714.423391,403.852491 715.460526,389.464262 715.460526,374.821349 C715.460526,187.81243 563.739959,36.1842105 376.572222,36.1842105" id="path18" fill="#5881D8"></path>
        </g>
    </g>
</svg>