<?xml version="1.0" encoding="UTF-8"?>
<svg width="3758px" height="1200px" viewBox="0 0 3758 1200" version="1.1" xmlns="http://www.w3.org/2000/svg" xmlns:xlink="http://www.w3.org/1999/xlink">
    <!-- Generator: Sketch 53.2 (72643) - https://sketchapp.com -->
    <title>calva-symbol-logo</title>
    <desc>Created with Sketch.</desc>
    <g id="Calva-2" stroke="none" stroke-width="1" fill="none" fill-rule="evenodd">
        <path d="M1828.23542,834.659688 C1836.14477,838.44372 1840.09938,843.947683 1840.09938,851.171744 C1840.09938,873.875933 1819.29468,903.803735 1777.68467,940.956045 C1707.18837,1003.90857 1627.06451,1035.38436 1537.31069,1035.38436 C1464.75108,1035.38436 1406.8934,1009.15454 1363.73591,956.694098 C1320.57842,904.233659 1299,833.800127 1299,745.391388 C1299,619.142333 1339.40581,513.363036 1420.21864,428.050323 C1501.03147,342.73761 1601.27227,300.081893 1720.94403,300.081893 C1781.81157,300.081893 1844.91341,311.605816 1910.25144,334.654009 L1875.69123,410.506264 L1865.89058,432.694338 C1857.63735,450.238485 1847.49291,459.010427 1835.45696,459.010427 C1833.04977,459.010427 1829.43904,458.49443 1824.62466,457.462421 C1829.43904,446.798332 1831.84619,438.026391 1831.84619,431.146333 C1831.84619,408.09814 1816.4576,387.974274 1785.67994,370.77413 C1754.90229,353.573987 1719.05288,344.974044 1678.13064,344.974044 C1594.22285,344.974044 1526.04879,378.169823 1473.60642,444.562378 C1421.16406,510.954933 1394.94326,597.29836 1394.94326,703.595248 C1394.94326,785.811935 1413.3408,851.3435 1450.13643,900.191908 C1486.93206,949.040316 1536.10679,973.464154 1597.6621,973.464154 C1642.02318,973.464154 1686.29763,960.134243 1730.48678,933.47402 C1774.67592,906.813797 1807.25848,873.876016 1828.23542,834.659688 Z M2257.63806,810.250515 C2218.77321,874.194664 2176.0397,926.535259 2129.43627,967.27387 C2082.83283,1008.01248 2042.33489,1028.38148 2007.94121,1028.38148 C1960.82187,1028.38148 1937.26255,990.393726 1937.26255,914.417076 C1937.26255,809.906209 1971.56973,719.405968 2040.18512,642.91364 C2108.80051,566.421311 2190.05435,528.17572 2283.9491,528.17572 C2319.71852,528.17572 2350.15647,532.644868 2375.26385,541.583297 C2373.54417,547.771441 2372.51238,551.553027 2372.16844,552.92817 L2365.97761,580.259 C2361.85037,599.167217 2359.61481,610.168195 2359.27087,613.262267 L2326.25311,841.191078 L2321.60998,874.194345 C2317.13881,906.853991 2314.90325,928.684058 2314.90325,939.685202 C2314.90325,954.467989 2319.2024,961.859272 2327.80082,961.859272 C2356.69151,961.859272 2386.26963,929.543896 2416.53606,864.912176 C2425.82236,870.412748 2430.46543,875.913237 2430.46543,881.413809 C2430.46543,893.44631 2415.67637,917.682842 2386.09781,954.124131 C2345.85721,1003.62928 2308.54062,1028.38148 2274.14695,1028.38148 C2249.03956,1028.38148 2236.48606,1011.53623 2236.48606,977.845229 C2236.48606,967.531657 2237.68982,953.264762 2240.09737,935.044118 L2245.2564,893.790034 L2251.96313,848.410543 L2257.63806,810.250515 Z M2286.40617,604.516089 C2255.11558,586.969473 2223.48162,578.196296 2191.50332,578.196296 C2143.36395,578.196296 2102.96187,607.612241 2070.29587,666.445011 C2037.62987,725.277782 2021.29712,798.215562 2021.29712,885.260539 C2021.29712,929.987207 2034.53525,952.350206 2061.0119,952.350206 C2091.61478,952.350206 2128.57839,928.955069 2171.90382,882.164093 C2230.35877,819.202707 2265.77506,745.232788 2278.15375,660.252119 L2286.40617,604.516089 Z M2687.90226,863.330272 C2697.87444,868.14429 2702.86046,874.333648 2702.86046,881.898533 C2702.86046,906.656339 2684.37782,937.259278 2647.41199,973.708268 C2610.44616,1010.15726 2579.41252,1028.38148 2554.31014,1028.38148 C2525.76908,1028.38148 2511.49877,1007.75029 2511.49877,966.487278 C2511.49877,941.385614 2513.04615,915.768548 2516.14096,889.635309 L2521.81476,843.730441 L2561.53134,484.744061 C2573.91059,375.397089 2611.47763,284.104051 2674.23357,210.862211 C2736.98952,137.620371 2809.28672,101 2891.12735,101 C2911.0717,101 2927.92099,102.719266 2941.67572,106.15785 L2868.43216,180.946679 C2852.27036,175.444945 2833.35789,172.694119 2811.69419,172.694119 C2760.11397,172.694119 2721.51534,190.832378 2695.89716,227.10944 C2670.27898,263.386501 2652.656,324.850269 2643.02769,411.502587 L2595.05832,843.730441 C2591.27577,877.084707 2589.38452,900.982507 2589.38452,915.42456 C2589.38452,946.371817 2594.7144,961.845213 2605.37431,961.845213 C2618.09743,961.845213 2633.05548,951.615579 2650.24889,931.156004 C2667.4423,910.696428 2679.9933,888.088077 2687.90226,863.330272 Z M2993.82204,913.851858 C3089.69197,779.717395 3137.62621,686.340573 3137.62621,633.718591 C3137.62621,614.114323 3127.66138,598.637502 3107.73144,587.287663 L3172.15983,521.252565 C3197.24407,533.978142 3209.78601,554.269975 3209.78601,582.128671 C3209.78601,616.522123 3176.97081,683.416384 3111.33943,782.813461 C3096.90739,804.137401 3086.77076,819.614223 3080.92923,829.244389 L3068.04355,851.428055 L3044.3339,889.088697 C3031.27635,909.724768 3017.53176,932.94 3003.09973,958.735089 L2931.45536,1028.38148 C2918.3978,917.634566 2897.0937,817.207192 2867.54239,727.096347 C2837.99109,636.985502 2811.53276,591.930756 2788.16661,591.930756 C2762.05151,591.930756 2743.83993,617.897423 2733.53134,669.831535 C2723.56636,666.39219 2718.58395,660.717356 2718.58395,652.806862 C2718.58395,626.667838 2729.83733,598.46563 2752.34443,568.199392 C2774.85153,537.933155 2796.06973,522.284369 2815.99968,521.252565 C2890.56518,517.469285 2949.8387,648.334408 2993.82204,913.851858 Z M3557.17263,810.250515 C3518.30777,874.194664 3475.57427,926.535259 3428.97084,967.27387 C3382.3674,1008.01248 3341.86945,1028.38148 3307.47577,1028.38148 C3260.35644,1028.38148 3236.79712,990.393726 3236.79712,914.417076 C3236.79712,809.906209 3271.1043,719.405968 3339.71969,642.91364 C3408.33508,566.421311 3489.58892,528.17572 3583.48366,528.17572 C3619.25309,528.17572 3649.69104,532.644868 3674.79842,541.583297 C3673.07874,547.771441 3672.04694,551.553027 3671.70301,552.92817 L3665.51218,580.259 C3661.38493,599.167217 3659.14938,610.168195 3658.80544,613.262267 L3625.78768,841.191078 L3621.14455,874.194345 C3616.67337,906.853991 3614.43782,928.684058 3614.43782,939.685202 C3614.43782,954.467989 3618.73696,961.859272 3627.33538,961.859272 C3656.22607,961.859272 3685.80419,929.543896 3716.07063,864.912176 C3725.35692,870.412748 3730,875.913237 3730,881.413809 C3730,893.44631 3715.21094,917.682842 3685.63238,954.124131 C3645.39177,1003.62928 3608.07519,1028.38148 3573.68151,1028.38148 C3548.57413,1028.38148 3536.02062,1011.53623 3536.02062,977.845229 C3536.02062,967.531657 3537.22439,953.264762 3539.63194,935.044118 L3544.79097,893.790034 L3551.4977,848.410543 L3557.17263,810.250515 Z M3586.94115,604.516089 C3555.65056,586.969473 3524.0166,578.196296 3492.0383,578.196296 C3443.89893,578.196296 3403.49685,607.612241 3370.83085,666.445011 C3338.16485,725.277782 3321.8321,798.215562 3321.8321,885.260539 C3321.8321,929.987207 3335.07023,952.350206 3361.54688,952.350206 C3392.14976,952.350206 3429.11337,928.955069 3472.4388,882.164093 C3530.89375,819.202707 3566.31004,745.232788 3578.68873,660.252119 L3586.94115,604.516089 Z" id="Calva" fill="#96CA4B" fill-rule="nonzero"></path>
        <g id="Calva-2-BG" transform="translate(21.000000, 58.000000)">
            <g id="Calva-BG">
                <path d="M170.476298,1082.61861 C60.0268654,956.593158 0,703.342021 0,535.308091 C0,369.674646 50.4225669,146.429567 170.476298,0 L218.714447,2.40048471 C131.075223,193.239019 101.06179,328.866406 101.06179,535.308091 C101.06179,721.345656 139.478984,908.583463 218.714447,1080.21812 L170.476298,1082.61861 Z" id="(-)" fill="#5881D8"></path>
                <path d="M1109.4763,1083.61861 C999.026865,957.593158 939,704.342021 939,536.308091 C939,370.674646 989.422567,147.429567 1109.4763,1 L1157.71445,3.40048471 C1070.07522,194.239019 1040.06179,329.866406 1040.06179,536.308091 C1040.06179,722.345656 1078.47898,909.583463 1157.71445,1081.21812 L1109.4763,1083.61861 Z" id="(-)-copy" fill="#5881D8" transform="translate(1048.357223, 542.309303) scale(-1, 1) translate(-1048.357223, -542.309303) "></path>
                <path d="M1008.43361,322 C1020.47575,387.985544 1029.55238,457.683177 1029.55238,535.789377 C1029.55238,707.099091 981.337343,879.253027 924.625733,1043.22321 L234.926649,1043.22321 L225.341966,1043.22321 C169.262577,881.257705 134.53489,711.307331 134.009742,542.07297 C134.003242,539.978323 136,537.883787 136,535.789377 C136,457.683177 143.07663,387.985544 155.11877,322 L1008.43361,322 Z" id="Calva--Rectangle" fill="#91DC47"></path>
            </g>
        </g>
    </g>
</svg>